<?xml version="1.0" encoding="UTF-8" standalone="no"?>
<svg
   version="1.1"
   viewBox="0 0 24 24"
   width="24"
   height="24"
   id="svg11"
   sodipodi:docname="dynamic.svg"
   inkscape:version="1.1.1 (3bf5ae0d25, 2021-09-20)"
   xmlns:inkscape="http://www.inkscape.org/namespaces/inkscape"
   xmlns:sodipodi="http://sodipodi.sourceforge.net/DTD/sodipodi-0.dtd"
   xmlns="http://www.w3.org/2000/svg"
   xmlns:svg="http://www.w3.org/2000/svg">
  <sodipodi:namedview
     id="namedview13"
     pagecolor="#ffffff"
     bordercolor="#666666"
     borderopacity="1.0"
     inkscape:pageshadow="2"
     inkscape:pageopacity="0.0"
     inkscape:pagecheckerboard="0"
     showgrid="false"
     inkscape:zoom="32.864621"
     inkscape:cx="12.079859"
     inkscape:cy="12.049432"
     inkscape:window-width="1920"
     inkscape:window-height="1011"
     inkscape:window-x="0"
     inkscape:window-y="0"
     inkscape:window-maximized="1"
     inkscape:current-layer="svg11" />
  <defs
     id="defs3">
    <style
       type="text/css"
       id="current-color-scheme">.ColorScheme-Text {
        color:#232629;
      }</style>
  </defs>
  <g
     transform="translate(1,1)"
     id="g9">
    <path
       d="m9.5489808 18.491866c-1.3863041-0.277887-2.8119364-1.054826-3.8471349-2.096603-1.1240842-1.131229-1.8125242-2.479882-2.0932988-4.100767-0.2820927-1.628495-0.0694251-3.1053918 0.6687871-4.6444778 1.868706-3.8960327 6.7140588-5.4004412 10.538051-3.2719045 0.450911 0.2509892 1.020765 0.7163205 1.624347 1.3264077 0.790603 0.7991229 0.998614 1.0839426 1.389785 1.9029561 0.630977 1.3211124 0.81807 2.2515942 0.755964 3.7597105-0.08522 2.069469-0.705434 3.500571-2.160692 4.985673-1.835965 1.873616-4.329665 2.649385-6.8758082 2.139005z"
       class="ColorScheme-Text"
       fill="currentColor"
       fill-opacity=".50196078"
       id="path7"
       style="fill:#00d708;fill-opacity:0.50196081" />
    <path
       class="ColorScheme-Text"
       d="m11.00001 3.00001c-4.432 0-8 3.568-8 8s3.568 8 8 8 8-3.568 8-8-3.568-8-8-8m0 1c3.878 0 7 3.122 7 7s-3.122 7-7 7-7-3.122-7-7 3.122-7 7-7"
       fill="currentColor"
       id="path5"
       style="fill:#00c10c;fill-opacity:1" />
    <path
       d="M 10.149132,15.492619 C 9.3198281,15.326384 8.4669979,14.86161 7.8477299,14.238406 7.1752895,13.561692 6.7634565,12.754911 6.5954938,11.785279 6.4267426,10.811094 6.5539629,9.9275966 6.9955702,9.0068972 8.1134522,6.6762443 11.012,5.7762893 13.299557,7.0496051 c 0.26974,0.1501448 0.610634,0.4285115 0.971704,0.7934728 0.472948,0.4780448 0.597382,0.6484273 0.831386,1.1383709 0.377457,0.7903051 0.489379,1.3469302 0.452226,2.2491032 -0.05098,1.237981 -0.421999,2.094083 -1.292551,2.982489 -1.098296,1.120819 -2.590057,1.584893 -4.11319,1.279578 z"
       class="ColorScheme-Text"
       fill="currentColor"
       fill-opacity=".50196078"
       id="path923"
       style="fill:#006f04;fill-opacity:0.50196081;stroke-width:0.598212" />
  </g>
</svg>
