<svg version="1.1" width="24" height="24" id="svg11" xmlns="http://www.w3.org/2000/svg"><defs id="defs3"><style type="text/css" id="current-color-scheme">.ColorScheme-Text{color:#232629}</style></defs><g transform="matrix(1.33552 0 0 1.33552 -2.69 -2.69)" id="g9" style="fill:#00c10c;fill-opacity:1"><path d="M9.549 18.492c-1.386-.278-2.812-1.055-3.847-2.097-1.124-1.131-1.813-2.48-2.093-4.1-.283-1.629-.07-3.106.668-4.645 1.869-3.896 6.714-5.4 10.538-3.272.451.251 1.021.716 1.625 1.327.79.799.998 1.083 1.39 1.902.63 1.322.818 2.252.755 3.76-.085 2.07-.705 3.5-2.16 4.986-1.836 1.873-4.33 2.65-6.876 2.139z" class="ColorScheme-Text" fill="currentColor" fill-opacity=".502" id="path7" style="fill:#00c10c;fill-opacity:1"/><path class="ColorScheme-Text" d="M11 3c-4.432 0-8 3.568-8 8s3.568 8 8 8 8-3.568 8-8-3.568-8-8-8m0 1c3.878 0 7 3.122 7 7s-3.122 7-7 7-7-3.122-7-7 3.122-7 7-7" fill="currentColor" id="path5" style="fill:#008008;fill-opacity:1"/></g><path d="M10.807 17.964c-1.108-.222-2.247-.843-3.074-1.675-.898-.904-1.448-1.981-1.672-3.276-.226-1.302-.056-2.481.534-3.711 1.493-3.113 5.364-4.315 8.42-2.614.36.2.815.572 1.297 1.06.631.638.798.866 1.11 1.52.504 1.055.654 1.799.604 3.004-.068 1.653-.563 2.796-1.726 3.983-1.467 1.497-3.46 2.117-5.493 1.709z" class="ColorScheme-Text" fill="currentColor" fill-opacity=".502" id="path923" style="color:#232629;fill:#009009;fill-opacity:1;stroke-width:.798927"/></svg>