<svg width="450" height="90" viewBox="0 0 119.063 23.813" version="1.1" id="svg5670" xmlns:xlink="http://www.w3.org/1999/xlink" xmlns="http://www.w3.org/2000/svg"><defs id="defs5667"><linearGradient id="linearGradient4219"><stop style="stop-color:#999a9c" id="stop4221"/><stop offset="1" style="stop-color:#dcdfdf" id="stop4223"/></linearGradient><linearGradient xlink:href="#linearGradient4219" id="linearGradient16224" gradientUnits="userSpaceOnUse" gradientTransform="matrix(.65385 0 0 .65385 141.429 181.315)" y1="549.798" x2="0" y2="497.798"/><linearGradient xlink:href="#linearGradient4251-0" id="linearGradient4291" y1="549.798" y2="497.798" x2="0" gradientUnits="userSpaceOnUse" gradientTransform="translate(-376.571 -491.798)"/><linearGradient xlink:href="#linearGradient4219" id="linearGradient4337" y1="549.798" y2="497.798" gradientUnits="userSpaceOnUse" x2="0" gradientTransform="matrix(.65385 0 0 .65385 141.429 181.315)"/><linearGradient id="linearGradient4227"><stop style="stop-color:#292c2f" id="stop4229"/><stop offset="1" style="stop-opacity:0" id="stop4231"/></linearGradient><linearGradient xlink:href="#linearGradient4227" id="linearGradient4383" y1="15" x1="15" y2="57" x2="57" gradientUnits="userSpaceOnUse"/><linearGradient id="linearGradient4251-0"><stop style="stop-color:#63984b" id="stop4253-4"/><stop offset="1" style="stop-color:#8fc278" id="stop4255-2"/></linearGradient><linearGradient xlink:href="#linearGradient4251-0" id="linearGradient16166" gradientUnits="userSpaceOnUse" gradientTransform="translate(-376.571 -491.798)" y1="549.798" x2="0" y2="497.798"/><linearGradient xlink:href="#linearGradient4227" id="linearGradient16168" gradientUnits="userSpaceOnUse" x1="15" y1="15" x2="57" y2="57"/><linearGradient xlink:href="#linearGradient4219" id="linearGradient16170" gradientUnits="userSpaceOnUse" gradientTransform="matrix(.65385 0 0 .65385 141.429 181.315)" y1="549.798" x2="0" y2="497.798"/><linearGradient xlink:href="#linearGradient4251-0" id="linearGradient16220" gradientUnits="userSpaceOnUse" gradientTransform="translate(-376.571 -491.798)" y1="549.798" x2="0" y2="497.798"/><linearGradient xlink:href="#linearGradient4227" id="linearGradient16222" gradientUnits="userSpaceOnUse" x1="15" y1="15" x2="57" y2="57"/><style type="text/css" id="current-color-scheme">.ColorScheme-Text{color:#232629}</style></defs><g id="layer1"><g id="g5807" transform="translate(-2.103 -3.15) scale(1.25463)"><g transform="translate(1 1)" id="g6"><path style="fill:currentColor;fill-opacity:1;stroke:none" d="M11 3a8.008 8.008 0 0 0-2 .266V4.31a7 7 0 0 0-1.316.544l-.008-.007-.733-.733a8 8 0 0 0-2.828 2.828l.522.522.218.219A7 7 0 0 0 4.31 9H3.26A8 8 0 0 0 3 11c.004.675.093 1.347.266 2H4.31a7 7 0 0 0 .544 1.316l-.218.22-.522.52a8 8 0 0 0 2.828 2.829l.522-.522.219-.218A7 7 0 0 0 9 17.69v1.049a8 8 0 0 0 2 .26 8.013 8.013 0 0 0 1-.07v-1.006c-.33.049-.665.075-1 .076-.335 0-.669-.026-1-.074V16.91a6 6 0 0 1-2.473-1.023l-.062.062-.65.65-.004.005a6.995 6.995 0 0 1-1.413-1.416l.002-.003.65-.65.065-.064A6 6 0 0 1 5.085 12H4.077A7.023 7.023 0 0 1 4 11c0-.335.026-.669.074-1H5.09a6 6 0 0 1 1.023-2.473l-.062-.062-.65-.65-.005-.004a6.995 6.995 0 0 1 1.417-1.413l.001.002.65.65.065.065A6 6 0 0 1 10 5.085V4.077c.33-.049.665-.075 1-.076.335 0 .669.026 1 .074V5.09a6 6 0 0 1 2.473 1.023l.062-.062.65-.65.004-.005a6.995 6.995 0 0 1 1.413 1.416l-.002.002-.65.65-.065.065A6 6 0 0 1 16.915 10H17.923c.049.33.075.665.076 1 0 .335-.026.669-.074 1H16.91a6 6 0 0 1-.271 1H18.74A8 8 0 0 0 19 11a8.008 8.008 0 0 0-.266-2H17.69a7 7 0 0 0-.545-1.316l.007-.008.733-.733a8 8 0 0 0-2.828-2.828l-.729.729-.012.011A7 7 0 0 0 13 4.31V3.26A8 8 0 0 0 11 3z" class="ColorScheme-Text" id="path1025"/></g><g transform="rotate(-90 12 11)" id="g1031"><path style="fill:currentColor;fill-opacity:1;stroke:none" d="M11 3a8.008 8.008 0 0 0-2 .266V4.31a7 7 0 0 0-1.316.544l-.008-.007-.733-.733a8 8 0 0 0-2.828 2.828l.522.522.218.219A7 7 0 0 0 4.31 9H3.26A8 8 0 0 0 3 11c.004.675.093 1.347.266 2H4.31a7 7 0 0 0 .544 1.316l-.218.22-.522.52a8 8 0 0 0 2.828 2.829l.522-.522.219-.218A7 7 0 0 0 9 17.69v1.049a8 8 0 0 0 2 .26 8.013 8.013 0 0 0 1-.07v-1.006c-.33.049-.665.075-1 .076-.335 0-.669-.026-1-.074V16.91a6 6 0 0 1-2.473-1.023l-.062.062-.65.65-.004.005a6.995 6.995 0 0 1-1.413-1.416l.002-.003.65-.65.065-.064A6 6 0 0 1 5.085 12H4.077A7.023 7.023 0 0 1 4 11c0-.335.026-.669.074-1H5.09a6 6 0 0 1 1.023-2.473l-.062-.062-.65-.65-.005-.004a6.995 6.995 0 0 1 1.417-1.413l.001.002.65.65.065.065A6 6 0 0 1 10 5.085V4.077c.33-.049.665-.075 1-.076.335 0 .669.026 1 .074V5.09a6 6 0 0 1 2.473 1.023l.062-.062.65-.65.004-.005a6.995 6.995 0 0 1 1.413 1.416l-.002.002-.65.65-.065.065A6 6 0 0 1 16.915 10H17.923c.049.33.075.665.076 1 0 .335-.026.669-.074 1H16.91a6 6 0 0 1-.271 1H18.74A8 8 0 0 0 19 11a8.008 8.008 0 0 0-.266-2H17.69a7 7 0 0 0-.545-1.316l.007-.008.733-.733a8 8 0 0 0-2.828-2.828l-.729.729-.012.011A7 7 0 0 0 13 4.31V3.26A8 8 0 0 0 11 3z" class="ColorScheme-Text" id="path1027"/><path style="fill:currentColor;fill-opacity:1;stroke:none" d="M11 3a8.008 8.008 0 0 0-2 .266V4.31a7 7 0 0 0-1.316.544l-.008-.007-.733-.733a8 8 0 0 0-2.828 2.828l.522.522.218.219A7 7 0 0 0 4.31 9H3.26A8 8 0 0 0 3 11c.004.675.093 1.347.266 2H4.31a7 7 0 0 0 .544 1.316l-.218.22-.522.52a8 8 0 0 0 2.828 2.829l.522-.522.219-.218A7 7 0 0 0 9 17.69v1.049a8 8 0 0 0 2 .26 8.013 8.013 0 0 0 1-.07v-1.006c-.33.049-.665.075-1 .076-.335 0-.669-.026-1-.074V16.91a6 6 0 0 1-2.473-1.023l-.062.062-.65.65-.004.005a6.995 6.995 0 0 1-1.413-1.416l.002-.003.65-.65.065-.064A6 6 0 0 1 5.085 12H4.077A7.023 7.023 0 0 1 4 11c0-.335.026-.669.074-1H5.09a6 6 0 0 1 1.023-2.473l-.062-.062-.65-.65-.005-.004a6.995 6.995 0 0 1 1.417-1.413l.001.002.65.65.065.065A6 6 0 0 1 10 5.085V4.077c.33-.049.665-.075 1-.076.335 0 .669.026 1 .074V5.09a6 6 0 0 1 2.473 1.023l.062-.062.65-.65.004-.005a6.995 6.995 0 0 1 1.413 1.416l-.002.002-.65.65-.065.065A6 6 0 0 1 16.915 10H17.923c.049.33.075.665.076 1 0 .335-.026.669-.074 1H16.91a6 6 0 0 1-.271 1H18.74A8 8 0 0 0 19 11a8.008 8.008 0 0 0-.266-2H17.69a7 7 0 0 0-.545-1.316l.007-.008.733-.733a8 8 0 0 0-2.828-2.828l-.729.729-.012.011A7 7 0 0 0 13 4.31V3.26A8 8 0 0 0 11 3z" class="ColorScheme-Text" id="path1029"/></g><g aria-label="Q" id="text1920" style="font-size:11.1363px;line-height:1.25;stroke-width:.278407"><path d="M11.816 15.747c2.317 0 3.865-1.603 3.865-4.031 0-2.339-1.504-3.898-3.753-3.898-2.294 0-3.82 1.604-3.82 4.02 0 2.35 1.481 3.91 3.708 3.91zm3.196.435.88-.847-3.53-3.34-.835.857zM11.928 14.5c-1.437 0-2.35-1.069-2.35-2.784 0-1.626.868-2.65 2.238-2.65 1.46 0 2.395 1.069 2.395 2.773 0 1.625-.891 2.661-2.283 2.661z" style="font-weight:700;font-family:Cantarell;-inkscape-font-specification:'Cantarell Bold'" id="path5431"/></g></g><g aria-label="QPASM" id="text6361" style="font-size:11.3926px;line-height:1.25;stroke-width:.284815"><path d="M28.187 13.343c2.472 0 4.113-1.64 4.113-4.113 0-2.415-1.595-4.021-3.987-4.021-2.45 0-4.079 1.652-4.079 4.135 0 2.404 1.584 4 3.953 4zm3.088.604 1.23-1.15-3.703-3.532-1.184 1.173zm-2.962-2.313c-1.288 0-2.051-.888-2.051-2.404 0-1.458.718-2.312 1.925-2.312 1.31 0 2.085.9 2.085 2.426 0 1.436-.729 2.29-1.96 2.29z" style="font-weight:800;font-family:Cantarell;-inkscape-font-specification:'Cantarell Ultra-Bold'" id="path5334"/><path d="M33.644 13.23h1.971V7.053h.82c.798 0 1.333.433 1.333 1.094 0 .638-.444 1.025-1.15 1.025h-1.732v1.732h1.379c2.141 0 3.554-1.173 3.554-2.95 0-1.653-1.208-2.632-3.224-2.632h-2.95z" style="font-weight:800;font-family:Cantarell;-inkscape-font-specification:'Cantarell Ultra-Bold'" id="path5336"/><path d="M39.876 13.23h2.108l2.096-7.064h-.547l2.199 7.063h2.176l-2.7-7.906H42.69zm2.199-1.63h3.623l-.41-1.777h-2.814z" style="font-weight:800;font-family:Cantarell;-inkscape-font-specification:'Cantarell Ultra-Bold'" id="path5338"/><path d="M50.995 13.343c2.096 0 3.259-1.002 3.259-2.586 0-2.905-3.908-2.028-3.908-3.201 0-.4.444-.616 1.219-.616.638 0 1.344.114 1.902.308l.547-1.572c-.66-.296-1.538-.467-2.347-.467-2.005 0-3.372 1.048-3.372 2.643 0 2.689 3.885 1.925 3.885 3.144 0 .365-.342.57-1.105.57a6.302 6.302 0 0 1-2.37-.467l-.547 1.617c.81.365 1.857.627 2.837.627z" style="font-weight:800;font-family:Cantarell;-inkscape-font-specification:'Cantarell Ultra-Bold'" id="path5340"/><path d="M55.393 13.23h1.914V8.01l-.24.308 1.88 3.691h1.493l1.8-3.691-.126-.25v5.16h1.914V5.323h-1.88L59.404 10.7h.809l-2.917-5.377h-1.902z" style="font-weight:800;font-family:Cantarell;-inkscape-font-specification:'Cantarell Ultra-Bold'" id="path5342"/></g><g aria-label="Pseudo Assembler" id="text8761" style="font-size:4.8203px;line-height:1.25;stroke-width:.120508"><path d="M24.785 18.52h.4v-2.997h.593c.487 0 .815.318.815.79 0 .453-.27.694-.767.694h-.785v.347h.713c.747 0 1.248-.443 1.248-1.113 0-.641-.472-1.065-1.176-1.065h-1.04z" style="font-family:Cantarell;-inkscape-font-specification:Cantarell" id="path5345"/><path d="M28.29 18.569c.573 0 .925-.27.925-.699 0-.853-1.388-.535-1.388-1.06 0-.203.217-.333.564-.333.197 0 .429.043.626.11l.092-.312a1.797 1.797 0 0 0-.68-.126c-.602 0-.988.265-.988.704 0 .834 1.384.487 1.384 1.056 0 .212-.188.332-.507.332-.245 0-.573-.067-.819-.173l-.092.313c.265.12.588.188.882.188z" style="font-family:Cantarell;-inkscape-font-specification:Cantarell" id="path5347"/><path d="M30.868 18.569c.265 0 .555-.063.762-.173l-.087-.28c-.178.087-.405.14-.607.14-.545 0-.868-.362-.868-.964 0-.526.236-.815.66-.815.396 0 .627.256.627.699h-1.354v.29h1.696c.01-.073.02-.242.02-.333 0-.584-.386-.984-.96-.984-.645 0-1.084.506-1.084 1.22 0 .742.458 1.2 1.195 1.2z" style="font-family:Cantarell;-inkscape-font-specification:Cantarell" id="path5349"/><path d="M33.168 18.569c.327 0 .66-.145.896-.4l-.091-.246a.953.953 0 0 1-.69.309c-.361 0-.568-.212-.568-.588v-1.447h-.386v1.524c0 .515.342.848.839.848zm.82-.048h.269v-2.324h-.386v2.054z" style="font-family:Cantarell;-inkscape-font-specification:Cantarell" id="path5351"/><path d="M35.944 18.569c.39 0 .694-.193.873-.51l-.14-.174a.699.699 0 0 1-.622.347c-.463 0-.762-.362-.762-.897 0-.51.27-.848.719-.848.294 0 .525.135.66.366l.178-.212c-.168-.313-.467-.492-.853-.492-.655 0-1.09.492-1.09 1.23 0 .713.415 1.19 1.037 1.19zm.79-.048h.27v-3.562h-.385v3.292z" style="font-family:Cantarell;-inkscape-font-specification:Cantarell" id="path5353"/><path d="M38.74 18.569c.684 0 1.147-.496 1.147-1.239 0-.718-.429-1.18-1.09-1.18-.684 0-1.142.49-1.142 1.233 0 .718.424 1.186 1.085 1.186zm.053-.337c-.448 0-.752-.362-.752-.897 0-.516.275-.848.704-.848.448 0 .756.366.756.896 0 .511-.28.849-.708.849z" style="font-family:Cantarell;-inkscape-font-specification:Cantarell" id="path5355"/><path d="M41.232 18.52h.42l1.094-3.065h-.044l1.032 3.066h.448l-1.176-3.345h-.52zm.631-.992h1.673v-.347h-1.673z" style="font-family:Cantarell;-inkscape-font-specification:Cantarell" id="path5357"/><path d="M45.32 18.569c.573 0 .925-.27.925-.699 0-.853-1.388-.535-1.388-1.06 0-.203.217-.333.564-.333.197 0 .429.043.626.11l.092-.312a1.797 1.797 0 0 0-.68-.126c-.602 0-.988.265-.988.704 0 .834 1.384.487 1.384 1.056 0 .212-.188.332-.506.332-.246 0-.574-.067-.82-.173l-.092.313c.266.12.589.188.883.188z" style="font-family:Cantarell;-inkscape-font-specification:Cantarell" id="path5359"/><path d="M47.556 18.569c.574 0 .926-.27.926-.699 0-.853-1.389-.535-1.389-1.06 0-.203.217-.333.564-.333.198 0 .43.043.627.11l.092-.312a1.797 1.797 0 0 0-.68-.126c-.603 0-.988.265-.988.704 0 .834 1.383.487 1.383 1.056 0 .212-.188.332-.506.332-.246 0-.573-.067-.82-.173l-.09.313c.264.12.587.188.881.188z" style="font-family:Cantarell;-inkscape-font-specification:Cantarell" id="path5361"/><path d="M50.135 18.569c.265 0 .554-.063.762-.173l-.087-.28c-.178.087-.405.14-.607.14-.545 0-.868-.362-.868-.964 0-.526.236-.815.66-.815.396 0 .627.256.627.699h-1.355v.29h1.697c.01-.073.02-.242.02-.333 0-.584-.386-.984-.96-.984-.646 0-1.084.506-1.084 1.22 0 .742.458 1.2 1.195 1.2z" style="font-family:Cantarell;-inkscape-font-specification:Cantarell" id="path5363"/><path d="M54.758 18.52h.385v-1.522c0-.516-.337-.849-.853-.849-.332 0-.66.145-.901.4l.091.246a.968.968 0 0 1 .704-.308c.371 0 .574.212.574.588zm-3.124 0h.386v-2.053l-.116-.27h-.27zm1.562 0h.386v-1.522c0-.516-.338-.849-.849-.849a1.25 1.25 0 0 0-.906.4l.092.246a.968.968 0 0 1 .703-.308c.371 0 .574.212.574.588z" style="font-family:Cantarell;-inkscape-font-specification:Cantarell" id="path5365"/><path d="M56.893 18.569c.665 0 1.109-.496 1.109-1.239 0-.708-.424-1.18-1.06-1.18-.444 0-.767.226-.921.616l.144.212a.694.694 0 0 1 .685-.491c.462 0 .766.366.766.901 0 .506-.275.844-.723.844a.737.737 0 0 1-.699-.458l-.178.212c.15.376.453.583.877.583zm-.988-.048h.27l.116-.27v-3.292h-.386z" style="font-family:Cantarell;-inkscape-font-specification:Cantarell" id="path5367"/><path d="M59.178 18.55a.872.872 0 0 0 .366-.077l-.086-.27a.43.43 0 0 1-.17.038c-.163 0-.25-.11-.25-.289v-2.993h-.385V18c0 .333.207.55.525.55z" style="font-family:Cantarell;-inkscape-font-specification:Cantarell" id="path5369"/><path d="M61.039 18.569c.265 0 .554-.063.761-.173l-.087-.28c-.178.087-.404.14-.607.14-.545 0-.868-.362-.868-.964 0-.526.237-.815.66-.815.396 0 .627.256.627.699h-1.354v.29h1.697c.01-.073.019-.242.019-.333 0-.584-.386-.984-.96-.984-.645 0-1.084.506-1.084 1.22 0 .742.458 1.2 1.196 1.2z" style="font-family:Cantarell;-inkscape-font-specification:Cantarell" id="path5371"/><path d="M62.538 18.52h.385v-1.783l-.067-.54h-.318zm.299-1.508a.796.796 0 0 1 .988-.429l.096-.357a.965.965 0 0 0-.308-.053.916.916 0 0 0-.776.449z" style="font-family:Cantarell;-inkscape-font-specification:Cantarell" id="path5373"/></g><g id="layer1-3" transform="matrix(.24781 0 0 .24781 10.047 -119.392)"><path style="fill:#dce269;fill-rule:evenodd" id="path4346" d="M6 15v1l3.2 2.4.8-.4z" transform="translate(376.571 491.798)"/><path style="fill:url(#linearGradient4291)" id="rect4283" d="M6 6v9l4 3-4 2v38h52V6z" transform="translate(376.571 491.798)"/><path style="opacity:.2;fill:url(#linearGradient4383);fill-rule:evenodd" id="path4378" d="M49 15 15 49l9 9h34V24z" transform="translate(376.571 491.798)"/><path style="fill:#dce269" id="rect4293" d="M382.571 548.798h52v1h-52z"/><path style="color:#000" id="path4303-6" d="M427.571 543.798v1h-1v-1zm-1 1v1h-1v-1zm-1 0h-1v-1h1zm-1 0v1h-1v-1zm-1 0h-1v-1h1zm-1 0v1h-1v-1zm-1 0h-1v-1h1zm-1 0v1h-1v-1zm-1 0h-1v-1h1zm-1 0v1h-1v-1zm-1 0h-1v-1h1zm-1 0v1h-1v-1zm-1 0h-1v-1h1zm-1 0v1h-1v-1zm-1 0h-1v-1h1zm-1 0v1h-1v-1z"/><path style="fill:#e6ea97;fill-rule:evenodd" id="path4317" d="m431.571 543.798-2 2h2z"/><path style="color:#000" id="path4331" d="M387.571 543.798v1h1v-1zm1 1v1h1v-1zm1 0h1v-1h-1zm1 0v1h1v-1zm1 0h1v-1h-1zm1 0v1h1v-1zm1 0h1v-1h-1zm1 0v1h1v-1zm1 0h1v-1h-1zm1 0v1h1v-1zm1 0h1v-1h-1zm1 0v1h1v-1zm1 0h1v-1h-1zm1 0v1h1v-1zm1 0h1v-1h-1zm1 0v1h1v-1z"/><path style="color:#000" id="path4333" d="M432.571 521.798h-1v-1h1zm-1-1h-1v-1h1zm0-1v-1h1v1zm0-1h-1v-1h1zm0-1v-1h1v1zm0-1h-1v-1h1zm0-1v-1h1v1zm0-1h-1v-1h1zm0-1v-1h1v1zm0-1h-1v-1h1zm0-1v-1h1v1zm0-1h-1v-1h1zm0-1v-1h1v1zm0-1h-1v-1h1zm0-1v-1h1v1zm0-1h-1v-1h1z"/><path style="fill:url(#linearGradient4337)" id="rect4335" d="M391.571 506.798h34v34h-34z"/><path style="color:#000" id="path4339" d="M54 40v1h1v-1zm1 1v1h1v-1zm0 1h-1v1h1zm0 1v1h1v-1zm0 1h-1v1h1zm0 1v1h1v-1zm0 1h-1v1h1zm0 1v1h1v-1zm0 1h-1v1h1z" transform="translate(376.571 491.798)"/><path style="fill:#616365" id="rect4167" d="M391.571 539.798h34v1h-34z"/><path style="fill:#484a4b" id="rect4172" d="M393.571 535.798h8v1h-8z"/><path style="fill:#484a4b" id="rect4174" d="M393.571 537.798h4v1h-4z"/><path style="fill:#484a4b" id="rect4176" d="M42 16v1h2v-1h-1zm2 1v1h-2v3h1v-2h1v2h3v-1h-1v-1h-1v-1h1v-1h-1zm2 0h1v-1h-1zm0 1v1h1v-1z" transform="translate(376.571 491.798)"/></g><g id="g16162" transform="matrix(.24781 0 0 .24781 -4.505 -119.392)" style="opacity:.50216001"><path style="fill:#dce269;fill-rule:evenodd" id="path16134" d="M6 15v1l3.2 2.4.8-.4z" transform="translate(376.571 491.798)"/><path style="fill:url(#linearGradient16166)" id="path16136" d="M6 6v9l4 3-4 2v38h52V6z" transform="translate(376.571 491.798)"/><path style="opacity:.2;fill:url(#linearGradient16168);fill-rule:evenodd" id="path16138" d="M49 15 15 49l9 9h34V24z" transform="translate(376.571 491.798)"/><path style="fill:#dce269" id="rect16140" d="M382.571 548.798h52v1h-52z"/><path style="color:#000" id="path16142" d="M427.571 543.798v1h-1v-1zm-1 1v1h-1v-1zm-1 0h-1v-1h1zm-1 0v1h-1v-1zm-1 0h-1v-1h1zm-1 0v1h-1v-1zm-1 0h-1v-1h1zm-1 0v1h-1v-1zm-1 0h-1v-1h1zm-1 0v1h-1v-1zm-1 0h-1v-1h1zm-1 0v1h-1v-1zm-1 0h-1v-1h1zm-1 0v1h-1v-1zm-1 0h-1v-1h1zm-1 0v1h-1v-1z"/><path style="fill:#e6ea97;fill-rule:evenodd" id="path16144" d="m431.571 543.798-2 2h2z"/><path style="color:#000" id="path16146" d="M387.571 543.798v1h1v-1zm1 1v1h1v-1zm1 0h1v-1h-1zm1 0v1h1v-1zm1 0h1v-1h-1zm1 0v1h1v-1zm1 0h1v-1h-1zm1 0v1h1v-1zm1 0h1v-1h-1zm1 0v1h1v-1zm1 0h1v-1h-1zm1 0v1h1v-1zm1 0h1v-1h-1zm1 0v1h1v-1zm1 0h1v-1h-1zm1 0v1h1v-1z"/><path style="color:#000" id="path16148" d="M432.571 521.798h-1v-1h1zm-1-1h-1v-1h1zm0-1v-1h1v1zm0-1h-1v-1h1zm0-1v-1h1v1zm0-1h-1v-1h1zm0-1v-1h1v1zm0-1h-1v-1h1zm0-1v-1h1v1zm0-1h-1v-1h1zm0-1v-1h1v1zm0-1h-1v-1h1zm0-1v-1h1v1zm0-1h-1v-1h1zm0-1v-1h1v1zm0-1h-1v-1h1z"/><path style="fill:url(#linearGradient16170)" id="rect16150" d="M391.571 506.798h34v34h-34z"/><path style="color:#000" id="path16152" d="M54 40v1h1v-1zm1 1v1h1v-1zm0 1h-1v1h1zm0 1v1h1v-1zm0 1h-1v1h1zm0 1v1h1v-1zm0 1h-1v1h1zm0 1v1h1v-1zm0 1h-1v1h1z" transform="translate(376.571 491.798)"/><path style="fill:#616365" id="rect16154" d="M391.571 539.798h34v1h-34z"/><path style="fill:#484a4b" id="rect16156" d="M393.571 535.798h8v1h-8z"/><path style="fill:#484a4b" id="rect16158" d="M393.571 537.798h4v1h-4z"/><path style="fill:#484a4b" id="path16160" d="M42 16v1h2v-1h-1zm2 1v1h-2v3h1v-2h1v2h3v-1h-1v-1h-1v-1h1v-1h-1zm2 0h1v-1h-1zm0 1v1h1v-1z" transform="translate(376.571 491.798)"/></g><g id="g16218" transform="matrix(.24781 0 0 .24781 -19.057 -119.392)" style="opacity:.14157176"><path style="fill:#dce269;fill-rule:evenodd" id="path16190" d="M6 15v1l3.2 2.4.8-.4z" transform="translate(376.571 491.798)"/><path style="fill:url(#linearGradient16220)" id="path16192" d="M6 6v9l4 3-4 2v38h52V6z" transform="translate(376.571 491.798)"/><path style="opacity:.2;fill:url(#linearGradient16222);fill-rule:evenodd" id="path16194" d="M49 15 15 49l9 9h34V24z" transform="translate(376.571 491.798)"/><path style="fill:#dce269" id="rect16196" d="M382.571 548.798h52v1h-52z"/><path style="color:#000" id="path16198" d="M427.571 543.798v1h-1v-1zm-1 1v1h-1v-1zm-1 0h-1v-1h1zm-1 0v1h-1v-1zm-1 0h-1v-1h1zm-1 0v1h-1v-1zm-1 0h-1v-1h1zm-1 0v1h-1v-1zm-1 0h-1v-1h1zm-1 0v1h-1v-1zm-1 0h-1v-1h1zm-1 0v1h-1v-1zm-1 0h-1v-1h1zm-1 0v1h-1v-1zm-1 0h-1v-1h1zm-1 0v1h-1v-1z"/><path style="fill:#e6ea97;fill-rule:evenodd" id="path16200" d="m431.571 543.798-2 2h2z"/><path style="color:#000" id="path16202" d="M387.571 543.798v1h1v-1zm1 1v1h1v-1zm1 0h1v-1h-1zm1 0v1h1v-1zm1 0h1v-1h-1zm1 0v1h1v-1zm1 0h1v-1h-1zm1 0v1h1v-1zm1 0h1v-1h-1zm1 0v1h1v-1zm1 0h1v-1h-1zm1 0v1h1v-1zm1 0h1v-1h-1zm1 0v1h1v-1zm1 0h1v-1h-1zm1 0v1h1v-1z"/><path style="color:#000" id="path16204" d="M432.571 521.798h-1v-1h1zm-1-1h-1v-1h1zm0-1v-1h1v1zm0-1h-1v-1h1zm0-1v-1h1v1zm0-1h-1v-1h1zm0-1v-1h1v1zm0-1h-1v-1h1zm0-1v-1h1v1zm0-1h-1v-1h1zm0-1v-1h1v1zm0-1h-1v-1h1zm0-1v-1h1v1zm0-1h-1v-1h1zm0-1v-1h1v1zm0-1h-1v-1h1z"/><path style="fill:url(#linearGradient16224)" id="rect16206" d="M391.571 506.798h34v34h-34z"/><path style="color:#000" id="path16208" d="M54 40v1h1v-1zm1 1v1h1v-1zm0 1h-1v1h1zm0 1v1h1v-1zm0 1h-1v1h1zm0 1v1h1v-1zm0 1h-1v1h1zm0 1v1h1v-1zm0 1h-1v1h1z" transform="translate(376.571 491.798)"/><path style="fill:#616365" id="rect16210" d="M391.571 539.798h34v1h-34z"/><path style="fill:#484a4b" id="rect16212" d="M393.571 535.798h8v1h-8z"/><path style="fill:#484a4b" id="rect16214" d="M393.571 537.798h4v1h-4z"/><path style="fill:#484a4b" id="path16216" d="M42 16v1h2v-1h-1zm2 1v1h-2v3h1v-2h1v2h3v-1h-1v-1h-1v-1h1v-1h-1zm2 0h1v-1h-1zm0 1v1h1v-1z" transform="translate(376.571 491.798)"/></g></g></svg>