<?xml version="1.0" encoding="UTF-8" standalone="no"?>
<!-- Created with Inkscape (http://www.inkscape.org/) -->

<svg
   width="450"
   height="90"
   viewBox="0 0 119.0625 23.812501"
   version="1.1"
   id="svg5670"
   inkscape:version="1.1.1 (3bf5ae0d25, 2021-09-20)"
   sodipodi:docname="qpasm_logo.svg"
   xmlns:inkscape="http://www.inkscape.org/namespaces/inkscape"
   xmlns:sodipodi="http://sodipodi.sourceforge.net/DTD/sodipodi-0.dtd"
   xmlns:xlink="http://www.w3.org/1999/xlink"
   xmlns="http://www.w3.org/2000/svg"
   xmlns:svg="http://www.w3.org/2000/svg">
  <sodipodi:namedview
     id="namedview5672"
     pagecolor="#ffffff"
     bordercolor="#666666"
     borderopacity="1.0"
     inkscape:pageshadow="2"
     inkscape:pageopacity="0.0"
     inkscape:pagecheckerboard="0"
     inkscape:document-units="px"
     showgrid="true"
     units="px"
     showguides="false"
     inkscape:snap-text-baseline="true"
     inkscape:zoom="1.5832683"
     inkscape:cx="214.11406"
     inkscape:cy="-75.160984"
     inkscape:window-width="1920"
     inkscape:window-height="1011"
     inkscape:window-x="0"
     inkscape:window-y="0"
     inkscape:window-maximized="1"
     inkscape:current-layer="layer1">
    <inkscape:grid
       type="xygrid"
       id="grid16164" />
  </sodipodi:namedview>
  <defs
     id="defs5667">
    <style
       type="text/css"
       id="current-color-scheme">
      .ColorScheme-Text {
        color:#232629;
      }
      </style>
    <linearGradient
       inkscape:collect="always"
       id="linearGradient4251-0">
      <stop
         style="stop-color:#63984b"
         id="stop4253-4" />
      <stop
         offset="1"
         style="stop-color:#8fc278"
         id="stop4255-2" />
    </linearGradient>
    <linearGradient
       inkscape:collect="always"
       xlink:href="#linearGradient4251-0"
       id="linearGradient4291"
       y1="549.79797"
       y2="497.79797"
       x2="0"
       gradientUnits="userSpaceOnUse"
       gradientTransform="translate(-376.57144,-491.79797)" />
    <linearGradient
       inkscape:collect="always"
       xlink:href="#linearGradient4219"
       id="linearGradient4337"
       y1="549.79797"
       y2="497.79797"
       gradientUnits="userSpaceOnUse"
       x2="0"
       gradientTransform="matrix(0.65384614,0,0,0.65384614,141.42858,181.31471)" />
    <linearGradient
       inkscape:collect="always"
       id="linearGradient4227">
      <stop
         style="stop-color:#292c2f"
         id="stop4229" />
      <stop
         offset="1"
         style="stop-opacity:0"
         id="stop4231" />
    </linearGradient>
    <linearGradient
       inkscape:collect="always"
       xlink:href="#linearGradient4227"
       id="linearGradient4383"
       y1="15"
       x1="15"
       y2="57"
       x2="57"
       gradientUnits="userSpaceOnUse" />
    <linearGradient
       inkscape:collect="always"
       id="linearGradient4219">
      <stop
         style="stop-color:#999a9c"
         id="stop4221" />
      <stop
         offset="1"
         style="stop-color:#dcdfdf"
         id="stop4223" />
    </linearGradient>
    <linearGradient
       inkscape:collect="always"
       xlink:href="#linearGradient4251-0"
       id="linearGradient16166"
       gradientUnits="userSpaceOnUse"
       gradientTransform="translate(-376.57144,-491.79797)"
       y1="549.79797"
       x2="0"
       y2="497.79797" />
    <linearGradient
       inkscape:collect="always"
       xlink:href="#linearGradient4227"
       id="linearGradient16168"
       gradientUnits="userSpaceOnUse"
       x1="15"
       y1="15"
       x2="57"
       y2="57" />
    <linearGradient
       inkscape:collect="always"
       xlink:href="#linearGradient4219"
       id="linearGradient16170"
       gradientUnits="userSpaceOnUse"
       gradientTransform="matrix(0.65384614,0,0,0.65384614,141.42858,181.31471)"
       y1="549.79797"
       x2="0"
       y2="497.79797" />
    <linearGradient
       inkscape:collect="always"
       xlink:href="#linearGradient4251-0"
       id="linearGradient16220"
       gradientUnits="userSpaceOnUse"
       gradientTransform="translate(-376.57144,-491.79797)"
       y1="549.79797"
       x2="0"
       y2="497.79797" />
    <linearGradient
       inkscape:collect="always"
       xlink:href="#linearGradient4227"
       id="linearGradient16222"
       gradientUnits="userSpaceOnUse"
       x1="15"
       y1="15"
       x2="57"
       y2="57" />
    <linearGradient
       inkscape:collect="always"
       xlink:href="#linearGradient4219"
       id="linearGradient16224"
       gradientUnits="userSpaceOnUse"
       gradientTransform="matrix(0.65384614,0,0,0.65384614,141.42858,181.31471)"
       y1="549.79797"
       x2="0"
       y2="497.79797" />
  </defs>
  <g
     inkscape:label="Layer 1"
     inkscape:groupmode="layer"
     id="layer1">
    <g
       id="g5807"
       transform="matrix(1.2546314,0,0,1.2546314,-2.1026242,-3.1493266)">
      <g
         transform="translate(1,1)"
         id="g6">
        <path
           style="fill:currentColor;fill-opacity:1;stroke:none"
           d="M 11,3 C 10.32479,3.004 9.65279,3.092995 9,3.265625 v 1.0332031 0.011719 C 8.5438069,4.4469431 8.1027208,4.6295293 7.6835938,4.8554688 L 7.6757838,4.8476588 6.943362,4.115237 C 5.776412,4.803287 4.803287,5.776412 4.115237,6.943362 l 0.5214844,0.5214844 0.21875,0.21875 C 4.6288568,8.1026433 4.4456153,8.5437319 4.3085938,9 H 4.2949219 3.2597656 C 3.0891456,9.65304 3.00187,10.32505 3,11 c 0.004,0.67521 0.093005,1.34721 0.265625,2 h 1.0332031 0.011719 c 0.1363963,0.456193 0.3189824,0.897279 0.5449219,1.316406 l -0.21875,0.21875 -0.5214844,0.521485 c 0.68805,1.16696 1.661165,2.140075 2.828125,2.828125 l 0.5214844,-0.521485 0.21875,-0.21875 C 8.1026433,17.371143 8.5437319,17.554385 9,17.691406 V 18 18.740234 c 0.65304,0.17062 1.32504,0.257896 2,0.259766 0.335,-0.002 0.66853,-0.02661 1,-0.07031 V 17.92383 C 11.66955,17.97263 11.33491,17.9988 11,18 10.66455,17.9995 10.33106,17.97408 10,17.92578 V 17.921875 17 16.910156 C 9.1092437,16.759512 8.2640038,16.409665 7.5273438,15.886719 l -0.0625,0.0625 -0.6503907,0.65039 -0.00391,0.0039 C 6.2742469,16.201456 5.7991075,15.72484 5.3984375,15.1875 l 0.00195,-0.002 0.6503906,-0.650391 0.064453,-0.06445 C 5.5904768,13.735144 5.2386243,12.890564 5.0859375,12 H 5 4.0800781 4.0761719 C 4.0273719,11.66955 4.0012,11.33491 4,11 4.0005,10.66455 4.025919,10.33106 4.074219,10 H 4.078125 5 5.0898438 C 5.2404884,9.1092437 5.5903349,8.2640037 6.1132812,7.5273438 l -0.0625,-0.0625 -0.6503906,-0.6503907 -0.00391,-0.00391 C 5.7985544,6.2742469 6.27516,5.7991075 6.8125,5.3984375 l 0.00195,0.00195 0.6503907,0.6503906 0.064453,0.064453 C 8.2648562,5.5904768 9.1094357,5.2386243 10,5.0859375 V 5 4.0800781 4.0761719 C 10.33044,4.0273719 10.66509,4.0012 11,4 c 0.33545,5e-4 0.66894,0.025919 1,0.074219 V 4.078125 5 5.0898438 c 0.890756,0.1506446 1.735996,0.5004911 2.472656,1.0234374 l 0.0625,-0.0625 0.650391,-0.6503906 0.0039,-0.00391 c 0.53631,0.40206 1.01143,0.8786756 1.412109,1.4160156 l -0.002,0.00195 -0.65039,0.6503907 -0.06445,0.064453 C 16.409523,8.2648563 16.761375,9.1094357 16.914062,10 H 17 h 0.919922 0.0039 c 0.0488,0.33045 0.07497,0.66509 0.07617,1 -4.9e-4,0.33545 -0.02592,0.66894 -0.07422,1 H 17.921875 17 16.910156 c -0.06149,0.340538 -0.152322,0.675119 -0.271484,1 h 1.052734 1.048828 C 18.910854,12.34696 18.99813,11.67496 19,11 18.996,10.3248 18.907005,9.65279 18.734375,9 H 18 17.689453 C 17.553057,8.5438069 17.370471,8.1027208 17.144531,7.6835938 l 0.0078,-0.00781 0.732422,-0.7324218 C 17.196723,5.776402 16.223588,4.803287 15.056628,4.115237 L 14.328125,4.84375 14.316405,4.855469 C 13.897357,4.6288568 13.456268,4.4456153 13,4.3085938 V 4.2949219 3.2597656 C 12.34696,3.0891456 11.67496,3.00187 11,3 Z"
           class="ColorScheme-Text"
           id="path1025"
           sodipodi:nodetypes="cccccccccccccccccccccccccccccccccccccccccccccccccccccccccccccccccccccccccccccccccccccccccccccccccccccc" />
      </g>
      <g
         transform="rotate(-90,12,11)"
         id="g1031">
        <path
           style="fill:currentColor;fill-opacity:1;stroke:none"
           d="M 11,3 C 10.32479,3.004 9.65279,3.092995 9,3.265625 v 1.0332031 0.011719 C 8.5438069,4.4469431 8.1027208,4.6295293 7.6835938,4.8554688 L 7.6757838,4.8476588 6.943362,4.115237 C 5.776412,4.803287 4.803287,5.776412 4.115237,6.943362 l 0.5214844,0.5214844 0.21875,0.21875 C 4.6288568,8.1026433 4.4456153,8.5437319 4.3085938,9 H 4.2949219 3.2597656 C 3.0891456,9.65304 3.00187,10.32505 3,11 c 0.004,0.67521 0.093005,1.34721 0.265625,2 h 1.0332031 0.011719 c 0.1363963,0.456193 0.3189824,0.897279 0.5449219,1.316406 l -0.21875,0.21875 -0.5214844,0.521485 c 0.68805,1.16696 1.661165,2.140075 2.828125,2.828125 l 0.5214844,-0.521485 0.21875,-0.21875 C 8.1026433,17.371143 8.5437319,17.554385 9,17.691406 V 18 18.740234 c 0.65304,0.17062 1.32504,0.257896 2,0.259766 0.335,-0.002 0.66853,-0.02661 1,-0.07031 V 17.92383 C 11.66955,17.97263 11.33491,17.9988 11,18 10.66455,17.9995 10.33106,17.97408 10,17.92578 V 17.921875 17 16.910156 C 9.1092437,16.759512 8.2640038,16.409665 7.5273438,15.886719 l -0.0625,0.0625 -0.6503907,0.65039 -0.00391,0.0039 C 6.2742469,16.201456 5.7991075,15.72484 5.3984375,15.1875 l 0.00195,-0.002 0.6503906,-0.650391 0.064453,-0.06445 C 5.5904768,13.735144 5.2386243,12.890564 5.0859375,12 H 5 4.0800781 4.0761719 C 4.0273719,11.66955 4.0012,11.33491 4,11 4.0005,10.66455 4.025919,10.33106 4.074219,10 H 4.078125 5 5.0898438 C 5.2404884,9.1092437 5.5903349,8.2640037 6.1132812,7.5273438 l -0.0625,-0.0625 -0.6503906,-0.6503907 -0.00391,-0.00391 C 5.7985544,6.2742469 6.27516,5.7991075 6.8125,5.3984375 l 0.00195,0.00195 0.6503907,0.6503906 0.064453,0.064453 C 8.2648562,5.5904768 9.1094357,5.2386243 10,5.0859375 V 5 4.0800781 4.0761719 C 10.33044,4.0273719 10.66509,4.0012 11,4 c 0.33545,5e-4 0.66894,0.025919 1,0.074219 V 4.078125 5 5.0898438 c 0.890756,0.1506446 1.735996,0.5004911 2.472656,1.0234374 l 0.0625,-0.0625 0.650391,-0.6503906 0.0039,-0.00391 c 0.53631,0.40206 1.01143,0.8786756 1.412109,1.4160156 l -0.002,0.00195 -0.65039,0.6503907 -0.06445,0.064453 C 16.409523,8.2648563 16.761375,9.1094357 16.914062,10 H 17 h 0.919922 0.0039 c 0.0488,0.33045 0.07497,0.66509 0.07617,1 -4.9e-4,0.33545 -0.02592,0.66894 -0.07422,1 H 17.921875 17 16.910156 c -0.06149,0.340538 -0.152322,0.675119 -0.271484,1 h 1.052734 1.048828 C 18.910854,12.34696 18.99813,11.67496 19,11 18.996,10.3248 18.907005,9.65279 18.734375,9 H 18 17.689453 C 17.553057,8.5438069 17.370471,8.1027208 17.144531,7.6835938 l 0.0078,-0.00781 0.732422,-0.7324218 C 17.196723,5.776402 16.223588,4.803287 15.056628,4.115237 L 14.328125,4.84375 14.316405,4.855469 C 13.897357,4.6288568 13.456268,4.4456153 13,4.3085938 V 4.2949219 3.2597656 C 12.34696,3.0891456 11.67496,3.00187 11,3 Z"
           class="ColorScheme-Text"
           id="path1027"
           sodipodi:nodetypes="cccccccccccccccccccccccccccccccccccccccccccccccccccccccccccccccccccccccccccccccccccccccccccccccccccccc" />
        <path
           style="fill:currentColor;fill-opacity:1;stroke:none"
           d="M 11,3 C 10.32479,3.004 9.65279,3.092995 9,3.265625 v 1.0332031 0.011719 C 8.5438069,4.4469431 8.1027208,4.6295293 7.6835938,4.8554688 L 7.6757838,4.8476588 6.943362,4.115237 C 5.776412,4.803287 4.803287,5.776412 4.115237,6.943362 l 0.5214844,0.5214844 0.21875,0.21875 C 4.6288568,8.1026433 4.4456153,8.5437319 4.3085938,9 H 4.2949219 3.2597656 C 3.0891456,9.65304 3.00187,10.32505 3,11 c 0.004,0.67521 0.093005,1.34721 0.265625,2 h 1.0332031 0.011719 c 0.1363963,0.456193 0.3189824,0.897279 0.5449219,1.316406 l -0.21875,0.21875 -0.5214844,0.521485 c 0.68805,1.16696 1.661165,2.140075 2.828125,2.828125 l 0.5214844,-0.521485 0.21875,-0.21875 C 8.1026433,17.371143 8.5437319,17.554385 9,17.691406 V 18 18.740234 c 0.65304,0.17062 1.32504,0.257896 2,0.259766 0.335,-0.002 0.66853,-0.02661 1,-0.07031 V 17.92383 C 11.66955,17.97263 11.33491,17.9988 11,18 10.66455,17.9995 10.33106,17.97408 10,17.92578 V 17.921875 17 16.910156 C 9.1092437,16.759512 8.2640038,16.409665 7.5273438,15.886719 l -0.0625,0.0625 -0.6503907,0.65039 -0.00391,0.0039 C 6.2742469,16.201456 5.7991075,15.72484 5.3984375,15.1875 l 0.00195,-0.002 0.6503906,-0.650391 0.064453,-0.06445 C 5.5904768,13.735144 5.2386243,12.890564 5.0859375,12 H 5 4.0800781 4.0761719 C 4.0273719,11.66955 4.0012,11.33491 4,11 4.0005,10.66455 4.025919,10.33106 4.074219,10 H 4.078125 5 5.0898438 C 5.2404884,9.1092437 5.5903349,8.2640037 6.1132812,7.5273438 l -0.0625,-0.0625 -0.6503906,-0.6503907 -0.00391,-0.00391 C 5.7985544,6.2742469 6.27516,5.7991075 6.8125,5.3984375 l 0.00195,0.00195 0.6503907,0.6503906 0.064453,0.064453 C 8.2648562,5.5904768 9.1094357,5.2386243 10,5.0859375 V 5 4.0800781 4.0761719 C 10.33044,4.0273719 10.66509,4.0012 11,4 c 0.33545,5e-4 0.66894,0.025919 1,0.074219 V 4.078125 5 5.0898438 c 0.890756,0.1506446 1.735996,0.5004911 2.472656,1.0234374 l 0.0625,-0.0625 0.650391,-0.6503906 0.0039,-0.00391 c 0.53631,0.40206 1.01143,0.8786756 1.412109,1.4160156 l -0.002,0.00195 -0.65039,0.6503907 -0.06445,0.064453 C 16.409523,8.2648563 16.761375,9.1094357 16.914062,10 H 17 h 0.919922 0.0039 c 0.0488,0.33045 0.07497,0.66509 0.07617,1 -4.9e-4,0.33545 -0.02592,0.66894 -0.07422,1 H 17.921875 17 16.910156 c -0.06149,0.340538 -0.152322,0.675119 -0.271484,1 h 1.052734 1.048828 C 18.910854,12.34696 18.99813,11.67496 19,11 18.996,10.3248 18.907005,9.65279 18.734375,9 H 18 17.689453 C 17.553057,8.5438069 17.370471,8.1027208 17.144531,7.6835938 l 0.0078,-0.00781 0.732422,-0.7324218 C 17.196723,5.776402 16.223588,4.803287 15.056628,4.115237 L 14.328125,4.84375 14.316405,4.855469 C 13.897357,4.6288568 13.456268,4.4456153 13,4.3085938 V 4.2949219 3.2597656 C 12.34696,3.0891456 11.67496,3.00187 11,3 Z"
           class="ColorScheme-Text"
           id="path1029"
           sodipodi:nodetypes="cccccccccccccccccccccccccccccccccccccccccccccccccccccccccccccccccccccccccccccccccccccccccccccccccccccc" />
      </g>
      <g
         aria-label="Q"
         id="text1920"
         style="font-size:11.1363px;line-height:1.25;stroke-width:0.278407">
        <path
           d="m 11.816251,15.747365 c 2.31635,0 3.864296,-1.603627 3.864296,-4.03134 0,-2.3386234 -1.5034,-3.8977054 -3.752933,-3.8977054 -2.2940779,0 -3.819751,1.6036272 -3.819751,4.0202044 0,2.349759 1.4811279,3.908841 3.708388,3.908841 z m 3.196118,0.434316 0.879768,-0.846359 -3.530207,-3.34089 -0.835223,0.857495 z M 11.927614,14.5001 c -1.436583,0 -2.3497594,-1.069085 -2.3497594,-2.784075 0,-1.6259 0.8686314,-2.6504398 2.2383964,-2.6504398 1.458855,0 2.394304,1.0690848 2.394304,2.7729388 0,1.6259 -0.890904,2.661576 -2.282941,2.661576 z"
           style="font-weight:bold;font-family:Cantarell;-inkscape-font-specification:'Cantarell Bold'"
           id="path5431" />
      </g>
    </g>
    <g
       aria-label="QPASM"
       id="text6361"
       style="font-size:11.3926px;line-height:1.25;stroke-width:0.284815">
      <path
         d="m 28.187258,13.343093 c 2.472195,0 4.112729,-1.640534 4.112729,-4.1127286 0,-2.4152312 -1.594964,-4.0215879 -3.98741,-4.0215879 -2.449409,0 -4.078551,1.6519271 -4.078551,4.1355139 0,2.4038386 1.583572,3.9988026 3.953232,3.9988026 z m 3.087395,0.603808 1.230401,-1.150653 -3.702595,-3.5317058 -1.184831,1.1734378 z m -2.962076,-2.312698 c -1.287364,0 -2.050668,-0.888623 -2.050668,-2.4038386 0,-1.4582528 0.717734,-2.3126978 1.925349,-2.3126978 1.310149,0 2.084846,0.9000154 2.084846,2.4266238 0,1.4354676 -0.729126,2.2899126 -1.959527,2.2899126 z"
         style="font-weight:800;font-family:Cantarell;-inkscape-font-specification:'Cantarell Ultra-Bold'"
         id="path5334" />
      <path
         d="m 33.644311,13.229167 h 1.97092 V 7.0543778 h 0.820267 c 0.797482,0 1.332935,0.4329188 1.332935,1.0936896 0,0.6379856 -0.444312,1.025334 -1.150653,1.025334 h -1.731675 v 1.7316756 h 1.378504 c 2.141809,0 3.554492,-1.1734382 3.554492,-2.9506838 0,-1.6519271 -1.207616,-2.6316907 -3.224106,-2.6316907 h -2.950684 z"
         style="font-weight:800;font-family:Cantarell;-inkscape-font-specification:'Cantarell Ultra-Bold'"
         id="path5336" />
      <path
         d="m 39.876041,13.229167 h 2.107631 l 2.096239,-7.0634121 h -0.546845 l 2.198772,7.0634121 h 2.175986 L 45.207778,5.3227025 h -2.517764 z m 2.198772,-1.629142 H 45.69766 L 45.287526,9.8227796 h -2.813972 z"
         style="font-weight:800;font-family:Cantarell;-inkscape-font-specification:'Cantarell Ultra-Bold'"
         id="path5338" />
      <path
         d="m 50.995218,13.343093 c 2.096239,0 3.258284,-1.002549 3.258284,-2.58612 0,-2.9051132 -3.907662,-2.027883 -3.907662,-3.2013208 0,-0.398741 0.444311,-0.6152004 1.219008,-0.6152004 0.637986,0 1.344327,0.113926 1.902564,0.3076002 L 54.014257,5.6758731 C 53.353486,5.3796655 52.476256,5.2087765 51.667382,5.2087765 c -2.005098,0 -3.37221,1.0481192 -3.37221,2.6430833 0,2.6886532 3.884877,1.9253494 3.884877,3.1443572 0,0.364564 -0.341778,0.56963 -1.105083,0.56963 -0.717733,0 -1.583571,-0.136711 -2.36966,-0.467096 L 48.158461,12.7165 c 0.808874,0.364563 1.856994,0.626593 2.836757,0.626593 z"
         style="font-weight:800;font-family:Cantarell;-inkscape-font-specification:'Cantarell Ultra-Bold'"
         id="path5340" />
      <path
         d="m 55.392746,13.229167 h 1.913957 V 8.0113562 l -0.239244,0.3076002 1.879779,3.6912026 h 1.49243 L 62.239699,8.3189564 62.11438,8.0683192 v 5.1608478 h 1.913957 V 5.3227025 H 62.148558 L 59.402942,10.70001 h 0.808874 L 57.295311,5.3227025 h -1.902565 z"
         style="font-weight:800;font-family:Cantarell;-inkscape-font-specification:'Cantarell Ultra-Bold'"
         id="path5342" />
    </g>
    <g
       aria-label="Pseudo Assembler"
       id="text8761"
       style="font-size:4.8203px;line-height:1.25;stroke-width:0.120508">
      <path
         d="m 24.785135,18.520834 h 0.400085 v -2.998227 h 0.592897 c 0.48685,0 0.81463,0.31814 0.81463,0.79053 0,0.453108 -0.269936,0.694123 -0.766427,0.694123 h -0.785709 v 0.347061 h 0.713404 c 0.747147,0 1.248458,-0.443467 1.248458,-1.113489 0,-0.6411 -0.47239,-1.065286 -1.176153,-1.065286 h -1.041185 z"
         style="font-family:Cantarell;-inkscape-font-specification:Cantarell"
         id="path5345" />
      <path
         d="m 28.289485,18.569037 c 0.573615,0 0.925497,-0.269937 0.925497,-0.698944 0,-0.853193 -1.388246,-0.535053 -1.388246,-1.060466 0,-0.202452 0.216913,-0.3326 0.563975,-0.3326 0.197632,0 0.429007,0.04338 0.626639,0.110867 l 0.09159,-0.31332 c -0.197633,-0.08195 -0.433827,-0.125328 -0.679663,-0.125328 -0.602537,0 -0.988161,0.265117 -0.988161,0.703764 0,0.833912 1.383426,0.48685 1.383426,1.055646 0,0.212093 -0.187992,0.332601 -0.506132,0.332601 -0.245835,0 -0.573615,-0.06749 -0.819451,-0.173531 l -0.09158,0.313319 c 0.265116,0.120508 0.588076,0.187992 0.882115,0.187992 z"
         style="font-family:Cantarell;-inkscape-font-specification:Cantarell"
         id="path5347" />
      <path
         d="m 30.868339,18.569037 c 0.265117,0 0.554335,-0.06266 0.761608,-0.173531 l -0.08677,-0.279577 c -0.178351,0.08676 -0.404905,0.139788 -0.607357,0.139788 -0.544694,0 -0.867654,-0.361522 -0.867654,-0.96406 0,-0.525412 0.236194,-0.81463 0.660381,-0.81463 0.395264,0 0.626639,0.255476 0.626639,0.698943 h -1.354505 v 0.289218 h 1.696746 c 0.0096,-0.0723 0.01928,-0.241015 0.01928,-0.3326 0,-0.583257 -0.385624,-0.983342 -0.95924,-0.983342 -0.64592,0 -1.084567,0.506132 -1.084567,1.219536 0,0.742326 0.457928,1.200255 1.195434,1.200255 z"
         style="font-family:Cantarell;-inkscape-font-specification:Cantarell"
         id="path5349" />
      <path
         d="m 33.167622,18.569037 c 0.32778,0 0.660381,-0.144609 0.896576,-0.400085 l -0.09159,-0.245835 c -0.183171,0.197632 -0.438647,0.308499 -0.689303,0.308499 -0.361522,0 -0.568795,-0.212093 -0.568795,-0.588077 v -1.44609 H 32.32889 v 1.523215 c 0,0.515772 0.342241,0.848373 0.838732,0.848373 z m 0.819451,-0.0482 h 0.269937 v -2.323385 h -0.385624 v 2.053448 z"
         style="font-family:Cantarell;-inkscape-font-specification:Cantarell"
         id="path5351" />
      <path
         d="m 35.944108,18.569037 c 0.390445,0 0.694124,-0.192812 0.872475,-0.510952 l -0.139789,-0.173531 c -0.130148,0.216914 -0.347062,0.347062 -0.621819,0.347062 -0.462749,0 -0.761607,-0.361523 -0.761607,-0.896576 0,-0.510952 0.269937,-0.848373 0.718225,-0.848373 0.294038,0 0.525412,0.134969 0.660381,0.366343 l 0.178351,-0.212093 c -0.168711,-0.31332 -0.467569,-0.491671 -0.853193,-0.491671 -0.655561,0 -1.089388,0.491671 -1.089388,1.229177 0,0.713404 0.414546,1.190614 1.036364,1.190614 z m 0.79053,-0.0482 h 0.269936 V 14.958632 H 36.61895 v 3.292265 z"
         style="font-family:Cantarell;-inkscape-font-specification:Cantarell"
         id="path5353" />
      <path
         d="m 38.73988,18.569037 c 0.684483,0 1.147232,-0.496491 1.147232,-1.238817 0,-0.718225 -0.429007,-1.180974 -1.089388,-1.180974 -0.684483,0 -1.142411,0.491671 -1.142411,1.233997 0,0.718225 0.424186,1.185794 1.084567,1.185794 z m 0.05302,-0.337421 c -0.448288,0 -0.751967,-0.361523 -0.751967,-0.896576 0,-0.515772 0.274757,-0.848373 0.703764,-0.848373 0.448288,0 0.756787,0.366343 0.756787,0.896576 0,0.510952 -0.279577,0.848373 -0.708584,0.848373 z"
         style="font-family:Cantarell;-inkscape-font-specification:Cantarell"
         id="path5355" />
      <path
         d="m 41.231969,18.520834 h 0.419366 l 1.094208,-3.065711 h -0.04338 l 1.031544,3.065711 h 0.448288 l -1.176154,-3.345288 h -0.520592 z m 0.631459,-0.992982 h 1.672644 v -0.347061 h -1.672644 z"
         style="font-family:Cantarell;-inkscape-font-specification:Cantarell"
         id="path5357" />
      <path
         d="m 45.319581,18.569037 c 0.573616,0 0.925498,-0.269937 0.925498,-0.698944 0,-0.853193 -1.388247,-0.535053 -1.388247,-1.060466 0,-0.202452 0.216914,-0.3326 0.563976,-0.3326 0.197632,0 0.429006,0.04338 0.626639,0.110867 l 0.09159,-0.31332 c -0.197632,-0.08195 -0.433827,-0.125328 -0.679662,-0.125328 -0.602538,0 -0.988162,0.265117 -0.988162,0.703764 0,0.833912 1.383427,0.48685 1.383427,1.055646 0,0.212093 -0.187992,0.332601 -0.506132,0.332601 -0.245835,0 -0.573616,-0.06749 -0.819451,-0.173531 l -0.09159,0.313319 c 0.265117,0.120508 0.588077,0.187992 0.882115,0.187992 z"
         style="font-family:Cantarell;-inkscape-font-specification:Cantarell"
         id="path5359" />
      <path
         d="m 47.556196,18.569037 c 0.573615,0 0.925497,-0.269937 0.925497,-0.698944 0,-0.853193 -1.388246,-0.535053 -1.388246,-1.060466 0,-0.202452 0.216913,-0.3326 0.563975,-0.3326 0.197632,0 0.429007,0.04338 0.626639,0.110867 l 0.09159,-0.31332 c -0.197633,-0.08195 -0.433827,-0.125328 -0.679663,-0.125328 -0.602537,0 -0.988161,0.265117 -0.988161,0.703764 0,0.833912 1.383426,0.48685 1.383426,1.055646 0,0.212093 -0.187992,0.332601 -0.506132,0.332601 -0.245835,0 -0.573615,-0.06749 -0.819451,-0.173531 l -0.09159,0.313319 c 0.265116,0.120508 0.588076,0.187992 0.882115,0.187992 z"
         style="font-family:Cantarell;-inkscape-font-specification:Cantarell"
         id="path5361" />
      <path
         d="m 50.135049,18.569037 c 0.265117,0 0.554335,-0.06266 0.761608,-0.173531 l -0.08677,-0.279577 c -0.178351,0.08676 -0.404905,0.139788 -0.607358,0.139788 -0.544694,0 -0.867654,-0.361522 -0.867654,-0.96406 0,-0.525412 0.236195,-0.81463 0.660381,-0.81463 0.395265,0 0.626639,0.255476 0.626639,0.698943 h -1.354504 v 0.289218 h 1.696746 c 0.0096,-0.0723 0.01928,-0.241015 0.01928,-0.3326 0,-0.583257 -0.385624,-0.983342 -0.95924,-0.983342 -0.64592,0 -1.084567,0.506132 -1.084567,1.219536 0,0.742326 0.457928,1.200255 1.195434,1.200255 z"
         style="font-family:Cantarell;-inkscape-font-specification:Cantarell"
         id="path5363" />
      <path
         d="m 54.757717,18.520834 h 0.385624 v -1.523215 c 0,-0.515772 -0.337421,-0.848373 -0.853193,-0.848373 -0.332601,0 -0.660381,0.144609 -0.901396,0.400085 l 0.09159,0.245836 c 0.187992,-0.197633 0.438648,-0.3085 0.703764,-0.3085 0.371163,0 0.573616,0.212094 0.573616,0.588077 z m -3.123555,0 h 0.385624 v -2.053448 l -0.115687,-0.269937 h -0.269937 z m 1.561778,0 h 0.385624 v -1.523215 c 0,-0.515772 -0.337421,-0.848373 -0.848373,-0.848373 -0.337421,0 -0.665202,0.144609 -0.906217,0.400085 l 0.09159,0.245836 c 0.187992,-0.197633 0.438647,-0.3085 0.703764,-0.3085 0.371163,0 0.573616,0.212094 0.573616,0.588077 z"
         style="font-family:Cantarell;-inkscape-font-specification:Cantarell"
         id="path5365" />
      <path
         d="m 56.893108,18.569037 c 0.665202,0 1.108669,-0.496491 1.108669,-1.238817 0,-0.708584 -0.424186,-1.180974 -1.060466,-1.180974 -0.443467,0 -0.766427,0.226554 -0.920677,0.616999 l 0.144609,0.212093 c 0.106047,-0.308499 0.356702,-0.491671 0.684483,-0.491671 0.462748,0 0.766427,0.366343 0.766427,0.901396 0,0.506132 -0.274757,0.843553 -0.723045,0.843553 -0.32296,0 -0.573615,-0.173531 -0.698943,-0.457929 l -0.178351,0.212094 c 0.149429,0.375983 0.453108,0.583256 0.877294,0.583256 z m -0.988161,-0.0482 h 0.269937 l 0.115687,-0.269937 v -3.292265 h -0.385624 z"
         style="font-family:Cantarell;-inkscape-font-specification:Cantarell"
         id="path5367" />
      <path
         d="m 59.177928,18.549756 c 0.125327,0 0.274757,-0.02892 0.366342,-0.07712 l -0.08676,-0.269937 c -0.05784,0.0241 -0.110867,0.03856 -0.168711,0.03856 -0.16389,0 -0.250655,-0.110867 -0.250655,-0.289218 v -2.993407 h -0.385624 v 3.04161 c 0,0.3326 0.207273,0.549514 0.525413,0.549514 z"
         style="font-family:Cantarell;-inkscape-font-specification:Cantarell"
         id="path5369" />
      <path
         d="m 61.038566,18.569037 c 0.265116,0 0.554334,-0.06266 0.761607,-0.173531 l -0.08676,-0.279577 c -0.178351,0.08676 -0.404905,0.139788 -0.607358,0.139788 -0.544694,0 -0.867654,-0.361522 -0.867654,-0.96406 0,-0.525412 0.236195,-0.81463 0.660381,-0.81463 0.395265,0 0.626639,0.255476 0.626639,0.698943 h -1.354504 v 0.289218 h 1.696746 c 0.0096,-0.0723 0.01928,-0.241015 0.01928,-0.3326 0,-0.583257 -0.385624,-0.983342 -0.95924,-0.983342 -0.64592,0 -1.084568,0.506132 -1.084568,1.219536 0,0.742326 0.457929,1.200255 1.195435,1.200255 z"
         style="font-family:Cantarell;-inkscape-font-specification:Cantarell"
         id="path5371" />
      <path
         d="m 62.537677,18.520834 h 0.385624 v -1.783511 l -0.06748,-0.539874 h -0.31814 z m 0.298859,-1.508754 c 0.134968,-0.294038 0.414546,-0.472389 0.732685,-0.472389 0.09159,0 0.178352,0.01446 0.255476,0.04338 l 0.09641,-0.356702 c -0.101226,-0.03374 -0.202452,-0.05302 -0.308499,-0.05302 -0.313319,0 -0.602537,0.16871 -0.776068,0.448288 z"
         style="font-family:Cantarell;-inkscape-font-specification:Cantarell"
         id="path5373" />
    </g>
    <g
       inkscape:label="Capa 1"
       id="layer1-3"
       transform="matrix(0.24781384,0,0,0.24781384,10.046769,-119.39248)">
      <path
         style="fill:#dce269;fill-rule:evenodd"
         id="path4346"
         d="m 6,15 v 1 L 9.1992188,18.400391 10,18 Z"
         transform="translate(376.57144,491.79797)" />
      <path
         style="fill:url(#linearGradient4291)"
         id="rect4283"
         d="m 6,6 v 9 l 4,3 -4,2 V 58 H 58 V 6 Z"
         transform="translate(376.57144,491.79797)" />
      <path
         style="opacity:0.2;fill:url(#linearGradient4383);fill-rule:evenodd"
         id="path4378"
         d="m 49,15 -34,34 9,9 H 58 V 24 Z"
         transform="translate(376.57144,491.79797)" />
      <rect
         width="52"
         x="382.57144"
         y="548.79773"
         height="1"
         style="fill:#dce269"
         id="rect4293" />
      <path
         inkscape:connector-curvature="0"
         style="color:#000000"
         id="path4303-6"
         d="m 427.57143,543.79797 v 1 h -1 v -1 z m -1,1 v 1 h -1 v -1 z m -1,0 h -1 v -1 h 1 z m -1,0 v 1 h -1 v -1 z m -1,0 h -1 v -1 h 1 z m -1,0 v 1 h -1 v -1 z m -1,0 h -1 v -1 h 1 z m -1,0 v 1 h -1 v -1 z m -1,0 h -1 v -1 h 1 z m -1,0 v 1 h -1 v -1 z m -1,0 h -1 v -1 h 1 z m -1,0 v 1 h -1 v -1 z m -1,0 h -1 v -1 h 1 z m -1,0 v 1 h -1 v -1 z m -1,0 h -1 v -1 h 1 z m -1,0 v 1 h -1 v -1 z" />
      <path
         inkscape:connector-curvature="0"
         style="fill:#e6ea97;fill-rule:evenodd"
         id="path4317"
         d="m 431.57143,543.79797 -2,2 h 2 z" />
      <path
         inkscape:connector-curvature="0"
         style="color:#000000"
         id="path4331"
         d="m 387.57143,543.79797 v 1 h 1 v -1 z m 1,1 v 1 h 1 v -1 z m 1,0 h 1 v -1 h -1 z m 1,0 v 1 h 1 v -1 z m 1,0 h 1 v -1 h -1 z m 1,0 v 1 h 1 v -1 z m 1,0 h 1 v -1 h -1 z m 1,0 v 1 h 1 v -1 z m 1,0 h 1 v -1 h -1 z m 1,0 v 1 h 1 v -1 z m 1,0 h 1 v -1 h -1 z m 1,0 v 1 h 1 v -1 z m 1,0 h 1 v -1 h -1 z m 1,0 v 1 h 1 v -1 z m 1,0 h 1 v -1 h -1 z m 1,0 v 1 h 1 v -1 z" />
      <path
         inkscape:connector-curvature="0"
         style="color:#000000"
         id="path4333"
         d="m 432.57143,521.79797 h -1 v -1 h 1 z m -1,-1 h -1 v -1 h 1 z m 0,-1 v -1 h 1 v 1 z m 0,-1 h -1 v -1 h 1 z m 0,-1 v -1 h 1 v 1 z m 0,-1 h -1 v -1 h 1 z m 0,-1 v -1 h 1 v 1 z m 0,-1 h -1 v -1 h 1 z m 0,-1 v -1 h 1 v 1 z m 0,-1 h -1 v -1 h 1 z m 0,-1 v -1 h 1 v 1 z m 0,-1 h -1 v -1 h 1 z m 0,-1 v -1 h 1 v 1 z m 0,-1 h -1 v -1 h 1 z m 0,-1 v -1 h 1 v 1 z m 0,-1 h -1 v -1 h 1 z" />
      <rect
         width="34"
         x="391.57144"
         y="506.79797"
         height="34"
         style="fill:url(#linearGradient4337)"
         id="rect4335" />
      <path
         inkscape:connector-curvature="0"
         style="color:#000000"
         id="path4339"
         d="m 54,40 v 1 h 1 v -1 z m 1,1 v 1 h 1 v -1 z m 0,1 h -1 v 1 h 1 z m 0,1 v 1 h 1 v -1 z m 0,1 h -1 v 1 h 1 z m 0,1 v 1 h 1 v -1 z m 0,1 h -1 v 1 h 1 z m 0,1 v 1 h 1 v -1 z m 0,1 h -1 v 1 h 1 z"
         transform="translate(376.57144,491.79797)" />
      <rect
         width="34"
         x="391.57144"
         y="539.79797"
         height="0.99999601"
         style="fill:#616365"
         id="rect4167" />
      <rect
         width="8"
         x="393.57144"
         y="535.79797"
         height="1"
         style="fill:#484a4b"
         id="rect4172" />
      <rect
         width="4"
         x="393.57144"
         y="537.79797"
         height="1"
         style="fill:#484a4b"
         id="rect4174" />
      <path
         style="fill:#484a4b"
         id="rect4176"
         d="m 42,16 v 1 h 1 1 v -1 h -1 z m 2,1 v 1 h -1 -1 v 1 1 1 h 1 v -1 -1 h 1 v 1 1 h 1 1 1 v -1 h -1 v -1 h -1 v -1 h 1 v -1 h -1 z m 2,0 h 1 v -1 h -1 z m 0,1 v 1 h 1 v -1 z"
         transform="translate(376.57144,491.79797)" />
    </g>
    <g
       inkscape:label="Capa 1"
       id="g16162"
       transform="matrix(0.24781384,0,0,0.24781384,-4.5053151,-119.39248)"
       style="opacity:0.50216001">
      <path
         style="fill:#dce269;fill-rule:evenodd"
         id="path16134"
         d="m 6,15 v 1 L 9.1992188,18.400391 10,18 Z"
         transform="translate(376.57144,491.79797)" />
      <path
         style="fill:url(#linearGradient16166)"
         id="path16136"
         d="m 6,6 v 9 l 4,3 -4,2 V 58 H 58 V 6 Z"
         transform="translate(376.57144,491.79797)" />
      <path
         style="opacity:0.2;fill:url(#linearGradient16168);fill-rule:evenodd"
         id="path16138"
         d="m 49,15 -34,34 9,9 H 58 V 24 Z"
         transform="translate(376.57144,491.79797)" />
      <rect
         width="52"
         x="382.57144"
         y="548.79773"
         height="1"
         style="fill:#dce269"
         id="rect16140" />
      <path
         inkscape:connector-curvature="0"
         style="color:#000000"
         id="path16142"
         d="m 427.57143,543.79797 v 1 h -1 v -1 z m -1,1 v 1 h -1 v -1 z m -1,0 h -1 v -1 h 1 z m -1,0 v 1 h -1 v -1 z m -1,0 h -1 v -1 h 1 z m -1,0 v 1 h -1 v -1 z m -1,0 h -1 v -1 h 1 z m -1,0 v 1 h -1 v -1 z m -1,0 h -1 v -1 h 1 z m -1,0 v 1 h -1 v -1 z m -1,0 h -1 v -1 h 1 z m -1,0 v 1 h -1 v -1 z m -1,0 h -1 v -1 h 1 z m -1,0 v 1 h -1 v -1 z m -1,0 h -1 v -1 h 1 z m -1,0 v 1 h -1 v -1 z" />
      <path
         inkscape:connector-curvature="0"
         style="fill:#e6ea97;fill-rule:evenodd"
         id="path16144"
         d="m 431.57143,543.79797 -2,2 h 2 z" />
      <path
         inkscape:connector-curvature="0"
         style="color:#000000"
         id="path16146"
         d="m 387.57143,543.79797 v 1 h 1 v -1 z m 1,1 v 1 h 1 v -1 z m 1,0 h 1 v -1 h -1 z m 1,0 v 1 h 1 v -1 z m 1,0 h 1 v -1 h -1 z m 1,0 v 1 h 1 v -1 z m 1,0 h 1 v -1 h -1 z m 1,0 v 1 h 1 v -1 z m 1,0 h 1 v -1 h -1 z m 1,0 v 1 h 1 v -1 z m 1,0 h 1 v -1 h -1 z m 1,0 v 1 h 1 v -1 z m 1,0 h 1 v -1 h -1 z m 1,0 v 1 h 1 v -1 z m 1,0 h 1 v -1 h -1 z m 1,0 v 1 h 1 v -1 z" />
      <path
         inkscape:connector-curvature="0"
         style="color:#000000"
         id="path16148"
         d="m 432.57143,521.79797 h -1 v -1 h 1 z m -1,-1 h -1 v -1 h 1 z m 0,-1 v -1 h 1 v 1 z m 0,-1 h -1 v -1 h 1 z m 0,-1 v -1 h 1 v 1 z m 0,-1 h -1 v -1 h 1 z m 0,-1 v -1 h 1 v 1 z m 0,-1 h -1 v -1 h 1 z m 0,-1 v -1 h 1 v 1 z m 0,-1 h -1 v -1 h 1 z m 0,-1 v -1 h 1 v 1 z m 0,-1 h -1 v -1 h 1 z m 0,-1 v -1 h 1 v 1 z m 0,-1 h -1 v -1 h 1 z m 0,-1 v -1 h 1 v 1 z m 0,-1 h -1 v -1 h 1 z" />
      <rect
         width="34"
         x="391.57144"
         y="506.79797"
         height="34"
         style="fill:url(#linearGradient16170)"
         id="rect16150" />
      <path
         inkscape:connector-curvature="0"
         style="color:#000000"
         id="path16152"
         d="m 54,40 v 1 h 1 v -1 z m 1,1 v 1 h 1 v -1 z m 0,1 h -1 v 1 h 1 z m 0,1 v 1 h 1 v -1 z m 0,1 h -1 v 1 h 1 z m 0,1 v 1 h 1 v -1 z m 0,1 h -1 v 1 h 1 z m 0,1 v 1 h 1 v -1 z m 0,1 h -1 v 1 h 1 z"
         transform="translate(376.57144,491.79797)" />
      <rect
         width="34"
         x="391.57144"
         y="539.79797"
         height="0.99999601"
         style="fill:#616365"
         id="rect16154" />
      <rect
         width="8"
         x="393.57144"
         y="535.79797"
         height="1"
         style="fill:#484a4b"
         id="rect16156" />
      <rect
         width="4"
         x="393.57144"
         y="537.79797"
         height="1"
         style="fill:#484a4b"
         id="rect16158" />
      <path
         style="fill:#484a4b"
         id="path16160"
         d="m 42,16 v 1 h 1 1 v -1 h -1 z m 2,1 v 1 h -1 -1 v 1 1 1 h 1 v -1 -1 h 1 v 1 1 h 1 1 1 v -1 h -1 v -1 h -1 v -1 h 1 v -1 h -1 z m 2,0 h 1 v -1 h -1 z m 0,1 v 1 h 1 v -1 z"
         transform="translate(376.57144,491.79797)" />
    </g>
    <g
       inkscape:label="Capa 1"
       id="g16218"
       transform="matrix(0.24781384,0,0,0.24781384,-19.057399,-119.39248)"
       style="opacity:0.14157176">
      <path
         style="fill:#dce269;fill-rule:evenodd"
         id="path16190"
         d="m 6,15 v 1 L 9.1992188,18.400391 10,18 Z"
         transform="translate(376.57144,491.79797)" />
      <path
         style="fill:url(#linearGradient16220)"
         id="path16192"
         d="m 6,6 v 9 l 4,3 -4,2 V 58 H 58 V 6 Z"
         transform="translate(376.57144,491.79797)" />
      <path
         style="opacity:0.2;fill:url(#linearGradient16222);fill-rule:evenodd"
         id="path16194"
         d="m 49,15 -34,34 9,9 H 58 V 24 Z"
         transform="translate(376.57144,491.79797)" />
      <rect
         width="52"
         x="382.57144"
         y="548.79773"
         height="1"
         style="fill:#dce269"
         id="rect16196" />
      <path
         inkscape:connector-curvature="0"
         style="color:#000000"
         id="path16198"
         d="m 427.57143,543.79797 v 1 h -1 v -1 z m -1,1 v 1 h -1 v -1 z m -1,0 h -1 v -1 h 1 z m -1,0 v 1 h -1 v -1 z m -1,0 h -1 v -1 h 1 z m -1,0 v 1 h -1 v -1 z m -1,0 h -1 v -1 h 1 z m -1,0 v 1 h -1 v -1 z m -1,0 h -1 v -1 h 1 z m -1,0 v 1 h -1 v -1 z m -1,0 h -1 v -1 h 1 z m -1,0 v 1 h -1 v -1 z m -1,0 h -1 v -1 h 1 z m -1,0 v 1 h -1 v -1 z m -1,0 h -1 v -1 h 1 z m -1,0 v 1 h -1 v -1 z" />
      <path
         inkscape:connector-curvature="0"
         style="fill:#e6ea97;fill-rule:evenodd"
         id="path16200"
         d="m 431.57143,543.79797 -2,2 h 2 z" />
      <path
         inkscape:connector-curvature="0"
         style="color:#000000"
         id="path16202"
         d="m 387.57143,543.79797 v 1 h 1 v -1 z m 1,1 v 1 h 1 v -1 z m 1,0 h 1 v -1 h -1 z m 1,0 v 1 h 1 v -1 z m 1,0 h 1 v -1 h -1 z m 1,0 v 1 h 1 v -1 z m 1,0 h 1 v -1 h -1 z m 1,0 v 1 h 1 v -1 z m 1,0 h 1 v -1 h -1 z m 1,0 v 1 h 1 v -1 z m 1,0 h 1 v -1 h -1 z m 1,0 v 1 h 1 v -1 z m 1,0 h 1 v -1 h -1 z m 1,0 v 1 h 1 v -1 z m 1,0 h 1 v -1 h -1 z m 1,0 v 1 h 1 v -1 z" />
      <path
         inkscape:connector-curvature="0"
         style="color:#000000"
         id="path16204"
         d="m 432.57143,521.79797 h -1 v -1 h 1 z m -1,-1 h -1 v -1 h 1 z m 0,-1 v -1 h 1 v 1 z m 0,-1 h -1 v -1 h 1 z m 0,-1 v -1 h 1 v 1 z m 0,-1 h -1 v -1 h 1 z m 0,-1 v -1 h 1 v 1 z m 0,-1 h -1 v -1 h 1 z m 0,-1 v -1 h 1 v 1 z m 0,-1 h -1 v -1 h 1 z m 0,-1 v -1 h 1 v 1 z m 0,-1 h -1 v -1 h 1 z m 0,-1 v -1 h 1 v 1 z m 0,-1 h -1 v -1 h 1 z m 0,-1 v -1 h 1 v 1 z m 0,-1 h -1 v -1 h 1 z" />
      <rect
         width="34"
         x="391.57144"
         y="506.79797"
         height="34"
         style="fill:url(#linearGradient16224)"
         id="rect16206" />
      <path
         inkscape:connector-curvature="0"
         style="color:#000000"
         id="path16208"
         d="m 54,40 v 1 h 1 v -1 z m 1,1 v 1 h 1 v -1 z m 0,1 h -1 v 1 h 1 z m 0,1 v 1 h 1 v -1 z m 0,1 h -1 v 1 h 1 z m 0,1 v 1 h 1 v -1 z m 0,1 h -1 v 1 h 1 z m 0,1 v 1 h 1 v -1 z m 0,1 h -1 v 1 h 1 z"
         transform="translate(376.57144,491.79797)" />
      <rect
         width="34"
         x="391.57144"
         y="539.79797"
         height="0.99999601"
         style="fill:#616365"
         id="rect16210" />
      <rect
         width="8"
         x="393.57144"
         y="535.79797"
         height="1"
         style="fill:#484a4b"
         id="rect16212" />
      <rect
         width="4"
         x="393.57144"
         y="537.79797"
         height="1"
         style="fill:#484a4b"
         id="rect16214" />
      <path
         style="fill:#484a4b"
         id="path16216"
         d="m 42,16 v 1 h 1 1 v -1 h -1 z m 2,1 v 1 h -1 -1 v 1 1 1 h 1 v -1 -1 h 1 v 1 1 h 1 1 1 v -1 h -1 v -1 h -1 v -1 h 1 v -1 h -1 z m 2,0 h 1 v -1 h -1 z m 0,1 v 1 h 1 v -1 z"
         transform="translate(376.57144,491.79797)" />
    </g>
  </g>
</svg>
