<svg width="24" height="24" version="1.1" id="svg8" xmlns="http://www.w3.org/2000/svg"><defs id="defs3051"><style type="text/css" id="current-color-scheme">.ColorScheme-Text{color:#232629}</style></defs><path style="fill:#fff;fill-opacity:1;stroke:none;stroke-width:1.2px;stroke-linecap:butt;stroke-linejoin:miter;stroke-opacity:1" d="M7.2 19.2h2.4l1.2 1.2h2.4l1.2-1.2h2.4l2.4-1.2v-3.6l1.2-1.2v-2.4l-1.2-2.4V6L18 4.8H14.4l-1.2-1.2h-2.4L8.4 4.8H7.2L6 6 4.8 7.2v2.4l-1.2 1.2v2.4l1.2 2.4V18z" id="path962"/><g transform="matrix(1.2 0 0 1.2 -1.2 -1.2)" id="g6"><path style="fill:currentColor;fill-opacity:1;stroke:none" d="M11 3a8.008 8.008 0 0 0-2 .266V4.31a7 7 0 0 0-1.316.544l-.008-.007-.733-.733a8 8 0 0 0-2.828 2.828l.522.522.218.219A7 7 0 0 0 4.31 9H3.26A8 8 0 0 0 3 11c.004.675.093 1.347.266 2H4.31a7 7 0 0 0 .544 1.316l-.218.22-.522.52a8 8 0 0 0 2.828 2.829l.522-.522.219-.218A7 7 0 0 0 9 17.69v1.049a8 8 0 0 0 2 .26 8.013 8.013 0 0 0 1-.07v-1.006c-.33.049-.665.075-1 .076-.335 0-.669-.026-1-.074V16.91a6 6 0 0 1-2.473-1.023l-.062.062-.65.65-.004.005a6.995 6.995 0 0 1-1.413-1.416l.002-.003.65-.65.065-.064A6 6 0 0 1 5.085 12H4.077A7.023 7.023 0 0 1 4 11c0-.335.026-.669.074-1H5.09a6 6 0 0 1 1.023-2.473l-.062-.062-.65-.65-.005-.004a6.995 6.995 0 0 1 1.417-1.413l.001.002.65.65.065.065A6 6 0 0 1 10 5.085V4.077c.33-.049.665-.075 1-.076.335 0 .669.026 1 .074V5.09a6 6 0 0 1 2.473 1.023l.062-.062.65-.65.004-.005a6.995 6.995 0 0 1 1.413 1.416l-.002.002-.65.65-.065.065A6 6 0 0 1 16.915 10H17.923c.049.33.075.665.076 1 0 .335-.026.669-.074 1H16.91a6 6 0 0 1-.271 1H18.74A8 8 0 0 0 19 11a8.008 8.008 0 0 0-.266-2H17.69a7 7 0 0 0-.545-1.316l.007-.008.733-.733a8 8 0 0 0-2.828-2.828l-.729.729-.012.011A7 7 0 0 0 13 4.31V3.26A8 8 0 0 0 11 3z" class="ColorScheme-Text" id="path1025"/></g><g transform="rotate(-90 12 13.2) scale(1.2)" id="g1031"><path style="fill:currentColor;fill-opacity:1;stroke:none" d="M11 3a8.008 8.008 0 0 0-2 .266V4.31a7 7 0 0 0-1.316.544l-.008-.007-.733-.733a8 8 0 0 0-2.828 2.828l.522.522.218.219A7 7 0 0 0 4.31 9H3.26A8 8 0 0 0 3 11c.004.675.093 1.347.266 2H4.31a7 7 0 0 0 .544 1.316l-.218.22-.522.52a8 8 0 0 0 2.828 2.829l.522-.522.219-.218A7 7 0 0 0 9 17.69v1.049a8 8 0 0 0 2 .26 8.013 8.013 0 0 0 1-.07v-1.006c-.33.049-.665.075-1 .076-.335 0-.669-.026-1-.074V16.91a6 6 0 0 1-2.473-1.023l-.062.062-.65.65-.004.005a6.995 6.995 0 0 1-1.413-1.416l.002-.003.65-.65.065-.064A6 6 0 0 1 5.085 12H4.077A7.023 7.023 0 0 1 4 11c0-.335.026-.669.074-1H5.09a6 6 0 0 1 1.023-2.473l-.062-.062-.65-.65-.005-.004a6.995 6.995 0 0 1 1.417-1.413l.001.002.65.65.065.065A6 6 0 0 1 10 5.085V4.077c.33-.049.665-.075 1-.076.335 0 .669.026 1 .074V5.09a6 6 0 0 1 2.473 1.023l.062-.062.65-.65.004-.005a6.995 6.995 0 0 1 1.413 1.416l-.002.002-.65.65-.065.065A6 6 0 0 1 16.915 10H17.923c.049.33.075.665.076 1 0 .335-.026.669-.074 1H16.91a6 6 0 0 1-.271 1H18.74A8 8 0 0 0 19 11a8.008 8.008 0 0 0-.266-2H17.69a7 7 0 0 0-.545-1.316l.007-.008.733-.733a8 8 0 0 0-2.828-2.828l-.729.729-.012.011A7 7 0 0 0 13 4.31V3.26A8 8 0 0 0 11 3z" class="ColorScheme-Text" id="path1027"/><path style="fill:currentColor;fill-opacity:1;stroke:none" d="M11 3a8.008 8.008 0 0 0-2 .266V4.31a7 7 0 0 0-1.316.544l-.008-.007-.733-.733a8 8 0 0 0-2.828 2.828l.522.522.218.219A7 7 0 0 0 4.31 9H3.26A8 8 0 0 0 3 11c.004.675.093 1.347.266 2H4.31a7 7 0 0 0 .544 1.316l-.218.22-.522.52a8 8 0 0 0 2.828 2.829l.522-.522.219-.218A7 7 0 0 0 9 17.69v1.049a8 8 0 0 0 2 .26 8.013 8.013 0 0 0 1-.07v-1.006c-.33.049-.665.075-1 .076-.335 0-.669-.026-1-.074V16.91a6 6 0 0 1-2.473-1.023l-.062.062-.65.65-.004.005a6.995 6.995 0 0 1-1.413-1.416l.002-.003.65-.65.065-.064A6 6 0 0 1 5.085 12H4.077A7.023 7.023 0 0 1 4 11c0-.335.026-.669.074-1H5.09a6 6 0 0 1 1.023-2.473l-.062-.062-.65-.65-.005-.004a6.995 6.995 0 0 1 1.417-1.413l.001.002.65.65.065.065A6 6 0 0 1 10 5.085V4.077c.33-.049.665-.075 1-.076.335 0 .669.026 1 .074V5.09a6 6 0 0 1 2.473 1.023l.062-.062.65-.65.004-.005a6.995 6.995 0 0 1 1.413 1.416l-.002.002-.65.65-.065.065A6 6 0 0 1 16.915 10H17.923c.049.33.075.665.076 1 0 .335-.026.669-.074 1H16.91a6 6 0 0 1-.271 1H18.74A8 8 0 0 0 19 11a8.008 8.008 0 0 0-.266-2H17.69a7 7 0 0 0-.545-1.316l.007-.008.733-.733a8 8 0 0 0-2.828-2.828l-.729.729-.012.011A7 7 0 0 0 13 4.31V3.26A8 8 0 0 0 11 3z" class="ColorScheme-Text" id="path1029"/></g><g aria-label="Q" id="text1920" style="font-size:11.1363px;line-height:1.25;stroke-width:.278407" transform="matrix(1.2 0 0 1.2 -2.4 -2.4)"><path d="M11.816 15.747c2.317 0 3.865-1.603 3.865-4.031 0-2.339-1.504-3.898-3.753-3.898-2.294 0-3.82 1.604-3.82 4.02 0 2.35 1.481 3.91 3.708 3.91zm3.196.435.88-.847-3.53-3.34-.835.857zM11.928 14.5c-1.437 0-2.35-1.069-2.35-2.784 0-1.626.868-2.65 2.238-2.65 1.46 0 2.395 1.069 2.395 2.773 0 1.625-.891 2.661-2.283 2.661z" style="font-weight:700;font-family:Cantarell;-inkscape-font-specification:'Cantarell Bold'" id="path5431"/></g></svg>