<?xml version="1.0" encoding="UTF-8" standalone="no"?>
<svg
   viewBox="0 0 24 24"
   width="24"
   height="24"
   version="1.1"
   id="svg8"
   sodipodi:docname="run.svg"
   inkscape:version="1.1.1 (3bf5ae0d25, 2021-09-20)"
   xmlns:inkscape="http://www.inkscape.org/namespaces/inkscape"
   xmlns:sodipodi="http://sodipodi.sourceforge.net/DTD/sodipodi-0.dtd"
   xmlns="http://www.w3.org/2000/svg"
   xmlns:svg="http://www.w3.org/2000/svg">
  <sodipodi:namedview
     id="namedview10"
     pagecolor="#ffffff"
     bordercolor="#666666"
     borderopacity="1.0"
     inkscape:pageshadow="2"
     inkscape:pageopacity="0.0"
     inkscape:pagecheckerboard="0"
     showgrid="true"
     inkscape:zoom="32.333333"
     inkscape:cx="12"
     inkscape:cy="12"
     inkscape:window-width="1920"
     inkscape:window-height="1011"
     inkscape:window-x="0"
     inkscape:window-y="0"
     inkscape:window-maximized="1"
     inkscape:current-layer="svg8">
    <inkscape:grid
       type="xygrid"
       id="grid827" />
  </sodipodi:namedview>
  <defs
     id="defs3051">
    <style
       type="text/css"
       id="current-color-scheme">
      .ColorScheme-Text {
        color:#232629;
      }
      </style>
  </defs>
  <g
     transform="matrix(1.2994924,0,0,1.2994924,-2.2944168,-2.2944168)"
     id="g6">
    <path
       style="fill:currentColor;fill-opacity:1;stroke:none"
       d="M 11,3 C 10.32479,3.004 9.65279,3.092995 9,3.265625 v 1.0332031 0.011719 A 7,7 0 0 0 7.6835938,4.8554688 l -0.00781,-0.00781 -0.7324218,-0.7324218 c -1.16695,0.68805 -2.140075,1.661175 -2.828125,2.828125 l 0.5214844,0.5214844 0.21875,0.21875 A 7,7 0 0 0 4.3085938,9 H 4.2949219 3.2597656 C 3.0891456,9.65304 3.00187,10.32505 3,11 c 0.004,0.67521 0.093005,1.34721 0.265625,2 h 1.0332031 0.011719 a 7,7 0 0 0 0.5449219,1.316406 l -0.21875,0.21875 -0.5214844,0.521485 c 0.68805,1.16696 1.661165,2.140075 2.828125,2.828125 l 0.5214844,-0.521485 0.21875,-0.21875 A 7,7 0 0 0 9,17.691406 V 18 18.740234 c 0.65304,0.17062 1.32504,0.257896 2,0.259766 0.67496,-0.0019 1.34696,-0.08915 2,-0.259766 V 18 17.691406 a 7,7 0 0 0 1.316406,-0.546875 l 0.21875,0.21875 0.521485,0.521485 c 1.16696,-0.68805 2.140075,-1.661165 2.828125,-2.828125 l -0.521485,-0.521485 -0.21875,-0.21875 A 7,7 0 0 0 17.689453,13 h 0.01172 1.033203 C 18.907005,12.34721 18.996,11.67521 19,11 18.99813,10.32505 18.910854,9.65304 18.740234,9 h -1.035156 -0.01367 A 7,7 0 0 0 17.144531,7.6835938 l 0.21875,-0.21875 0.521485,-0.5214844 c -0.68805,-1.16695 -1.661175,-2.140075 -2.828125,-2.828125 l -0.732422,0.7324218 -0.0078,0.00781 A 7,7 0 0 0 13,4.3105469 V 4.2988281 3.265625 C 12.34721,3.092995 11.67521,3.004 11,3 Z m 0,1 c 0.33491,0.0012 0.66956,0.027372 1,0.076172 V 4.0800781 5 5.0859375 a 6,6 0 0 1 2.470703,1.0292969 l 0.06445,-0.064453 0.650391,-0.6503906 0.002,-0.00195 c 0.53734,0.40067 1.013946,0.8758094 1.416016,1.4121094 l -0.0039,0.00391 -0.65039,0.6503907 -0.0625,0.0625 A 6,6 0 0 1 16.910156,10 H 17 h 0.921875 0.0039 c 0.0483,0.33106 0.07372,0.66455 0.07422,1 -0.0012,0.33491 -0.02737,0.66955 -0.07617,1 H 17.919922 17 16.914062 a 6,6 0 0 1 -1.029296,2.470703 l 0.06445,0.06445 0.65039,0.650391 0.002,0.002 c -0.400669,0.53734 -0.875809,1.013956 -1.412109,1.416016 l -0.0039,-0.0039 -0.650391,-0.65039 -0.0625,-0.0625 A 6,6 0 0 1 12,16.910156 V 17 v 0.921875 0.0039 c -0.33106,0.0483 -0.66455,0.07372 -1,0.07422 -0.33545,-5e-4 -0.66894,-0.02592 -1,-0.07422 V 17.921875 17 16.910156 A 6,6 0 0 1 7.5273438,15.886719 l -0.0625,0.0625 -0.6503907,0.65039 -0.00391,0.0039 C 6.2742469,16.201456 5.7991075,15.72484 5.3984375,15.1875 l 0.00195,-0.002 0.6503906,-0.650391 0.064453,-0.06445 A 6,6 0 0 1 5.0859375,12 H 5 4.0800781 4.0761719 C 4.0273719,11.66955 4.0012,11.33491 4,11 c 5e-4,-0.33545 0.025919,-0.66894 0.074219,-1 H 4.078125 5 5.0898438 A 6,6 0 0 1 6.1132812,7.5273438 l -0.0625,-0.0625 -0.6503906,-0.6503907 -0.00391,-0.00391 C 5.7985544,6.2742469 6.27516,5.7991075 6.8125,5.3984375 l 0.00195,0.00195 0.6503907,0.6503906 0.064453,0.064453 A 6,6 0 0 1 10,5.0859375 V 5 4.0800781 4.0761719 C 10.33044,4.0273719 10.66509,4.0012 11,4 Z M 9,8 v 6 l 5,-3 z"
       class="ColorScheme-Text"
       id="path4" />
  </g>
</svg>
