<svg version="1.1" width="24" height="24" id="svg11" xmlns="http://www.w3.org/2000/svg"><defs id="defs3"><style type="text/css" id="current-color-scheme">.ColorScheme-Text{color:#232629}</style></defs><g transform="matrix(1.32402 0 0 1.32402 -2.564 -2.564)" id="g9"><path class="ColorScheme-Text" d="M11 3c-4.432 0-8 3.568-8 8s3.568 8 8 8 8-3.568 8-8-3.568-8-8-8m0 1c3.878 0 7 3.122 7 7s-3.122 7-7 7-7-3.122-7-7 3.122-7 7-7" fill="currentColor" id="path5"/><path d="M9.549 18.492c-1.386-.278-2.812-1.055-3.847-2.097-1.124-1.131-1.813-2.48-2.093-4.1-.283-1.629-.07-3.106.668-4.645 1.869-3.896 6.714-5.4 10.538-3.272.451.251 1.021.716 1.625 1.327.79.799.998 1.083 1.39 1.902.63 1.322.818 2.252.755 3.76-.085 2.07-.705 3.5-2.16 4.986-1.836 1.873-4.33 2.65-6.876 2.139z" class="ColorScheme-Text" fill="currentColor" fill-opacity=".502" id="path7"/></g><path style="fill:none;stroke:#000;stroke-width:1.32402px;stroke-linecap:butt;stroke-linejoin:miter;stroke-opacity:1" d="m5.38 14.648 1.324 2.648 2.648 1.324" id="path1397"/><path style="fill:none;stroke:#000;stroke-width:1.32402px;stroke-linecap:butt;stroke-linejoin:miter;stroke-opacity:1" d="M18.324 14.648 17 17.296l-2.648 1.324" id="path1479"/><path style="fill:none;stroke:#000;stroke-width:1.32402px;stroke-linecap:butt;stroke-linejoin:miter;stroke-opacity:1" d="M5.38 9.648 6.704 7l2.648-1.324" id="path1563"/><path style="fill:none;stroke:#000;stroke-width:1.32402px;stroke-linecap:butt;stroke-linejoin:miter;stroke-opacity:1" d="M18.324 9.648 17 7l-2.648-1.324" id="path1565"/></svg>